<?xml version="1.0" encoding="UTF-8"?>
<svg id="Layer_1" data-name="Layer 1" xmlns="http://www.w3.org/2000/svg" viewBox="0 0 884.56 374.34">
  <g>
    <path d="M114.98,313.2c0,39.38-20.67,59.07-61.99,59.07H1.82v-118.15h51.17c41.33,0,61.99,19.69,61.99,59.07ZM39.77,343.94h12.54c15.91,0,23.87-8.53,23.87-25.59v-10.3c0-17.06-7.96-25.59-23.87-25.59h-12.54v61.48Z"/>
    <path d="M233.99,309.94c-3.89,5.84-9.56,10.13-17,12.88l26.27,49.46h-42.59l-20.95-43.1h-14.08v43.1h-37.95v-118.15h72.3c8.47,0,15.71,1.63,21.72,4.89s10.53,7.67,13.57,13.22c3.03,5.55,4.55,11.59,4.55,18.12,0,7.21-1.95,13.74-5.84,19.58ZM198.1,284.18c-2.06-2.06-4.58-3.09-7.56-3.09h-24.9v21.81h24.9c2.98,0,5.5-1.06,7.56-3.18,2.06-2.12,3.09-4.72,3.09-7.81s-1.03-5.67-3.09-7.73Z"/>
    <path d="M255.28,372.28v-118.15h37.95v118.15h-37.95Z"/>
    <path d="M312.64,254.13h95.48v28.33h-57.53v20.26h49.46v27.13h-49.46v42.42h-37.95v-118.15Z"/>
    <path d="M487.45,284.35v87.92h-37.95v-87.92h-38.81v-30.22h115.4v30.22h-38.64Z"/>
    <path d="M535.7,254.13h102.18v28.33h-64.22v16.31h54.95v27.13h-54.95v18.03h65.43v28.33h-103.38v-118.15Z"/>
    <path d="M758.26,309.94c-3.89,5.84-9.56,10.13-17,12.88l26.27,49.46h-42.59l-20.95-43.1h-14.08v43.1h-37.95v-118.15h72.3c8.47,0,15.71,1.63,21.72,4.89,6.01,3.26,10.53,7.67,13.57,13.22,3.03,5.55,4.55,11.59,4.55,18.12,0,7.21-1.95,13.74-5.84,19.58ZM722.37,284.18c-2.06-2.06-4.58-3.09-7.56-3.09h-24.9v21.81h24.9c2.98,0,5.5-1.06,7.56-3.18,2.06-2.12,3.09-4.72,3.09-7.81s-1.03-5.67-3.09-7.73Z"/>
    <path d="M864.73,261.26c9.73,6.13,14.71,15.2,14.94,27.22v2.06h-35.55v-.69c0-3.43-1.26-6.29-3.78-8.59-2.52-2.29-6.35-3.43-11.51-3.43s-8.9.75-11.59,2.23c-2.69,1.49-4.04,3.32-4.04,5.5,0,3.09,1.83,5.38,5.5,6.87,3.66,1.49,9.56,3.04,17.69,4.64,9.5,1.95,17.31,3.98,23.44,6.1,6.12,2.12,11.48,5.58,16.06,10.39,4.58,4.81,6.92,11.33,7.04,19.58,0,13.97-4.72,24.33-14.17,31.08-9.44,6.76-22.07,10.13-37.87,10.13-18.43,0-32.77-3.09-43.02-9.27-10.25-6.18-15.37-17.11-15.37-32.8h35.89c0,5.95,1.55,9.93,4.64,11.93,3.09,2,7.9,3,14.42,3,4.81,0,8.79-.51,11.94-1.54,3.15-1.03,4.72-3.15,4.72-6.35,0-2.86-1.75-5.01-5.24-6.44-3.49-1.43-9.19-2.95-17.09-4.55-9.62-2.06-17.57-4.21-23.87-6.44-6.3-2.23-11.79-5.92-16.49-11.08-4.7-5.15-7.04-12.13-7.04-20.95,0-12.94,5.01-22.47,15.03-28.59,10.02-6.12,22.69-9.19,38.04-9.19s27.53,3.06,37.26,9.19Z"/>
  </g>
  <g>
    <path d="M84.1,194.46c0,28.7-15.06,43.05-45.18,43.05H1.63v-86.1h37.29c30.12,0,45.18,14.35,45.18,43.05ZM29.29,216.86h9.14c11.59,0,17.39-6.21,17.39-18.65v-7.51c0-12.43-5.8-18.65-17.39-18.65h-9.14v44.8Z"/>
    <path d="M93.36,151.41h74.46v20.65h-46.8v11.89h40.04v19.77h-40.04v13.14h47.68v20.65h-75.33v-86.1Z"/>
    <path d="M241.4,156.6c7.09,4.46,10.72,11.08,10.89,19.83v1.5h-25.9v-.5c0-2.5-.92-4.59-2.75-6.26-1.84-1.67-4.63-2.5-8.38-2.5s-6.49.54-8.45,1.63c-1.96,1.08-2.94,2.42-2.94,4,0,2.25,1.33,3.92,4,5.01,2.67,1.09,6.96,2.21,12.89,3.38,6.92,1.42,12.62,2.9,17.08,4.44,4.46,1.54,8.36,4.07,11.7,7.57,3.34,3.5,5.05,8.26,5.13,14.27,0,10.18-3.44,17.73-10.32,22.65-6.88,4.92-16.08,7.38-27.59,7.38-13.43,0-23.88-2.25-31.35-6.76-7.47-4.5-11.2-12.47-11.2-23.9h26.15c0,4.34,1.13,7.24,3.38,8.7,2.25,1.46,5.76,2.19,10.51,2.19,3.5,0,6.4-.38,8.7-1.13,2.29-.75,3.44-2.29,3.44-4.63,0-2.08-1.27-3.65-3.82-4.69-2.55-1.04-6.7-2.15-12.45-3.32-7.01-1.5-12.81-3.07-17.39-4.69-4.59-1.63-8.59-4.32-12.01-8.07-3.42-3.75-5.13-8.84-5.13-15.27,0-9.43,3.65-16.37,10.95-20.84,7.3-4.46,16.54-6.69,27.72-6.69s20.06,2.23,27.16,6.69Z"/>
    <path d="M312.35,173.43v64.07h-27.66v-64.07h-28.28v-22.02h84.09v22.02h-28.16Z"/>
    <path d="M348.77,237.51v-86.1h27.66v86.1h-27.66Z"/>
    <path d="M452.13,237.51l-36.17-41.8v41.8h-25.4v-86.1h24.15l36.17,42.42v-42.42h25.4v86.1h-24.15Z"/>
    <path d="M545.61,237.51l-3.63-12.14h-30.16l-3.63,12.14h-28.28l31.41-86.1h32.16l31.41,86.1h-29.28ZM517.58,206.1h18.65l-9.01-30.66h-.5l-9.13,30.66Z"/>
    <path d="M620.57,173.43v64.07h-27.66v-64.07h-28.28v-22.02h84.09v22.02h-28.16Z"/>
    <path d="M656.99,237.51v-86.1h27.66v86.1h-27.66Z"/>
    <path d="M775.99,161.3c8.09,7.59,12.14,18.65,12.14,33.16s-4.05,25.57-12.14,33.16c-8.09,7.59-19.56,11.39-34.41,11.39s-26.3-3.77-34.35-11.33c-8.05-7.55-12.08-18.62-12.08-33.22s4.02-25.67,12.08-33.22c8.05-7.55,19.5-11.33,34.35-11.33s26.32,3.8,34.41,11.39ZM728.06,175.94c-3.09,3.59-4.63,8.43-4.63,14.52v8.01c0,6.09,1.54,10.93,4.63,14.52,3.09,3.59,7.59,5.38,13.52,5.38s10.45-1.79,13.58-5.38c3.13-3.59,4.69-8.43,4.69-14.52v-8.01c0-6.09-1.56-10.93-4.69-14.52-3.13-3.59-7.65-5.38-13.58-5.38s-10.43,1.79-13.52,5.38Z"/>
    <path d="M858.96,237.51l-36.17-41.8v41.8h-25.4v-86.1h24.15l36.17,42.42v-42.42h25.4v86.1h-24.15Z"/>
  </g>
  <g>
    <path d="M457.53,117.66c-13.68,2.87-28.33,10.27-40.03,17.79-2.29,1.47-3.97,3.09-5.67,4.46h14.13c9.88-5.97,20.78-10.42,31.71-13.75,4.66-1.42,10.89-.05,10.18-6.59-.52-4.76-6.94-2.62-10.32-1.91Z"/>
    <path d="M520.17,130.82c3.03-4.17,0-5.36-3.85-5.76-19.44-1.99-44.91,4.54-66,14.85h21.09c7.76-2.23,16.22-3.88,25.72-5.14,4.94-.66,20.41-.34,23.04-3.95Z"/>
    <path d="M551.73,137.18c.03.22.06.43.09.65,0,.04,0,.08,0,.12,0,.02,0,.04,0,.06-.01.18-.04.37-.07.55,0,.01,0,.02,0,.04.05.44.1.87.14,1.31h10.2c-.57-9.26-1.85-18.38-4.5-27.21-4.9-16.32-16.13-35.65-27.42-48.4-1.4-1.59-3.08-1.33-3.31-3.81-.64-6.85,8.84-26.1,13.58-31.48.76-.86,3.25-4.05,4.49-3.26,5.13,3.28,4.8,28.54,5.13,34.71.43,8.11-.29,21,2.86,27.98.67,1.5,6.27,12.09,8.05,10.25-.12-7.6.17-15.23.03-22.83-.03-1.52-.66-2.92-.7-4.44-.33-16.1,3.53-59.91-19-62.6-7.22-.86-29.99-.97-36.91.22-4.02.69-7.62,3.47-10.26,6.44-2.57,2.9-10.75,17.64-11.68,18.19-1.47.86-6.12-1.26-7.23-2.47-1.71-1.86-3.82-9.51-5.48-12.51-8.36-15.17-25.04-22.56-41.77-16.67-10.59,3.73-16.67,12.72-21.33,22.36-.82,1.7-1.29,5.04-2.16,6.19-1.17,1.56-6.74,2.83-8.32,1.3-6.51-9.32-11.71-21.66-24.5-23.04-7.15-.78-31.12-.85-37.67.72-16.93,4.06-14.85,35.16-16.57,48.32l-.61,40.18c1.68,1.83,8.26-8.09,8.87-9.43,2.97-6.45,1.06-23.89,1.38-32.03.25-6.46,1.02-22.53,3.55-27.93,2.29-4.87,3.91-3.34,6.77-.33,7.86,8.29,12.44,21.6,14.66,32.63-.38,2.08-2.54,2.58-3.78,3.98-15.39,17.14-26.49,39.14-30.62,61.9-.78,4.32-1.31,8.68-1.67,13.07h10.47v-5.54c.3-1.09,15.48-10.33,18.02-12.82,2.42-2.38,9.88-14.32,10.9-14.84.48-.24,6.3,1.16,8.6.93,14.67-1.45,18.25-21.24,28.33-29.37,4.62,3.26,8.02,7.69,12.71,10.96,5.28,3.69,11.99,6.69,17.82,9.49.91,1.2-11.01,10.03-12.79,10.59-8.3-1.22-15.72-9.93-23.21-1.94-1.97,2.1-3.91,6.34-6.46,7.68-2.48,1.3-7.74,1.52-10.86,2.63-9.13,3.24-18.39,11.95-24.05,19.64-.6.82-1.19,1.69-1.78,2.59h10.25c4.03-4.71,8.48-8.85,14.04-11.57,4.74-2.32,10.23-3.1,14.82-5.74,3.47-1.99,8.6-8.65,11.99-8.45,2.16.13,6.02,1.91,7.95,3.05.53.31,1.07-.19.81,1.09-1.99,4.29-11.6,10.49-13.16,13.84-2.39,5.13,5.44,2.63,7.84,1.41,8.35-4.26,10.52-12.06,16.23-17.83,3.07-3.1,7.77-5.42,11.27-8l3.85,9.63c1.91-.88,5.05-6.9,5.77-9,1.24-3.63.96-7.41,2.64-10.85,1.88-3.84,6.31-6,8.35-9.75,3.76-.54,15.89,16.38,19.36,19.18,4.69,2.31,11.15-1.07,15.95-1.16,6.78-.13,19.65,15,29.51,16.09,3.38.37,8.37-.98,10.76-.53,3.01.56,7.15,4.6,10.12,5.99,3.63,1.69,17.08,4.42,18.64,5.77.45.39,1.08,2.49,1.02,4.11ZM501.54,22.24c2.57-2.83,3.7-4.07,7.73-4.48,8.28-.84,18.18.12,26.65-.65l-8.04,11.55-10.6,23.78-24.36-14.19c-1.07-1.51,6.86-14.08,8.62-16.02ZM448.72,11.47c6.66,2.28,13.83,9.77,13.31,17.2-14.85-2.94-30.01-1.95-44.97-.64,1.24-15.49,18.26-21.15,31.66-16.57ZM349.47,26.55l-6.29-8.8c7.43.14,14.74.67,22.19.67,2.99,0,3.78-1.22,7.3.36,2.95,1.32,14.72,16.56,13.92,18.26-7.79,5.04-16.73,8.47-23.17,15.39l-13.94-25.88ZM538.7,120.02c-5.35-2.37-12.41-9.65-17.81-9.07-3.19.35-7.55,3.39-10.85,2.41-8.76-7.4-17.8-17.52-30.36-16.61-3.58.26-6.96,2.02-10.76,1.31-3.92-5.2-8.06-11.13-12.65-15.77-8.56-8.67-11.69-5.57-18.98,2.26-1.58,1.69-5.85,8.85-8.19,8.27-.74-.18-10.46-6.9-11.99-8-5.51-3.94-18.65-16.64-24.78-16.37-5.66.25-14.21,13.43-17.31,18.08-2.88,4.33-4.66,11.86-11,12.18-6.15.32-9.23-4.44-14.7,1.96-5.87,6.88-7.9,13.5-16.49,18.84-.86.53-2.82,2.08-3.81,1.33,1.45-6.47,3.64-13.31,6.31-19.39,26.58-60.38,104.28-82.37,160.94-50.19,27.05,15.37,46.18,41.53,53.13,71.83-.48.51-9.38-2.51-10.71-3.1Z"/>
  </g>
</svg>