<?xml version="1.0" encoding="UTF-8"?>
<svg id="Layer_1" data-name="Layer 1" xmlns="http://www.w3.org/2000/svg" viewBox="0 0 1587.44 399.72">
  <defs>
    <style>
      .cls-1 {
        font-family: BrugtyDEMO-Regular, 'Brugty DEMO';
        font-size: 190.69px;
      }

      .cls-1, .cls-2 {
        fill: #221f20;
      }
    </style>
  </defs>
  <g>
    <path class="cls-2" d="M200.17-.28c110.49.03,198.83,89.46,199.89,197.93,1.09,111.51-89.23,202.24-200.13,202.07C89.3,399.55-.25,309.9,0,199.44.25,88.91,89.73-.37,200.17-.28ZM14.75,199.59c-.47,101.55,82.47,186,186.1,185.47,103.2-.53,185.71-84.56,184.51-187.68-1.17-100.96-83.46-183.48-185.97-182.98C96.9,14.9,13.91,98.47,14.75,199.59Z"/>
    <path class="cls-2" d="M202.01,329.15c42.67-1.21,78.14-17.56,105.36-50.78,10.62-12.96,17.31-28.02,21.83-44.1.55-1.96-.11-2.33-1.84-2.39-3.13-.12-6.25-.4-9.37-.63-2.02-.15-3.85-.87-5.36-2.16-1.64-1.4-2.64-3.61-1.06-5.16,3.19-3.14,2.88-7.09,3.49-10.88.12-.77.23-1.55.44-2.29.8-2.81,2.63-3.55,5.06-1.93,1.72,1.14,3.39,2.23,5.54,2.45,1.95.2,3.57-.08,5.15-1.42,2.91-2.46,5.3-2.39,8.46-.09,5.68,4.15,12.39,5.62,19.02,7.27,2.38.59,4.78,1.11,6.71,2.72,3.37,2.82,3.07,6.26-.61,8.61-5.85,3.72-12.36,4.7-19.1,4.67-1.68,0-2.29.42-2.57,2.19-9.32,57.86-44.63,93.03-98.96,109.49-48.2,14.61-93.88,6.27-134.89-22.92-27.17-19.34-44.49-45.92-51.05-79.01-.51-2.58-.93-5.19-1.22-7.81-.18-1.62-.89-2.04-2.44-1.98-4.02.15-8-.19-11.96-1.02-3.3-.7-6.33-1.98-9.2-3.73-3.83-2.33-4.02-6.08-.38-8.75,1.75-1.29,3.79-1.94,5.89-2.45,7.31-1.77,14.64-3.4,20.81-8.18,2.17-1.68,4.72-1.09,6.85.41,3.52,2.47,6.57,2.61,10.16.2,3.93-2.63,6.01-1.67,6.5,3.07.42,4.06.44,8.05,3.54,11.46,1.7,1.87.16,4.04-1.76,5.42-3.42,2.45-7.51,1.92-11.34,2.3-3.82.37-3.84.17-2.76,3.86,4.89,16.83,12.68,32.12,23.87,45.68,7.77,9.41,16.77,17.59,26.85,24.25,18.38,12.13,38.51,20,60.66,22.24,6.54.66,13.06,1.15,19.68,1.39Z"/>
    <path class="cls-2" d="M175.15,152.48c-1.31,15.51-.48,32.15-4.22,48.41-2.18,9.45-6.02,18.15-11.74,25.99-2.99,4.1-8.04,5.52-12.8,3.71-6.28-2.38-9.98-7.27-11.79-13.39-3.04-10.28-5.51-20.73-8.39-31.06-3.09-11.11-7.8-21.43-15.03-30.55-4.86-6.13-3.89-15.67,1.97-20.74,4.84-4.19,4.24-9.61,3.43-14.95-.73-4.83-3.15-8.99-6.22-12.77-4.54-5.58-2.56-11.55,4.4-13.37,4.18-1.09,8.5-1.51,12.76-1.77,4.07-.25,7.56-1.65,11-3.57,3.15-1.76,6.26-3.6,9.64-4.92,8.2-3.19,14.85-.9,19.52,6.66,2.75,4.46,3.78,9.41,4.33,14.49,1.68,15.58,2.75,31.19,3.15,47.82ZM161.02,118.26c-.26-2.77-.56-6.66-1-10.54-.28-2.51.1-5.1-.89-7.52-.79-1.92-2.52-3.69-4.18-2.36-2.57,2.06-5.42,1.87-8.2,2.5-3.25.74-3.44,1.4-1.79,4.26,1.31,2.27,2.17,4.55-.09,6.93-1.3,1.37-1.49,3.23-.23,4.81,2.51,3.14,3.7,6.8,4.64,10.61.53,2.16,1.03,4.39,1.99,6.36,1.69,3.45,4.69,3.43,6.65.17,2.63-4.36,2.95-9.2,3.1-15.23Z"/>
    <path class="cls-2" d="M282.8,152.37c-1.05,14.02-.54,30.03-3.58,45.78-1.86,9.62-5.66,18.4-10.79,26.72-5.29,8.59-13.79,7.72-19.69,2.52-4.38-3.86-6.45-9.01-7.81-14.48-2.56-10.32-4.98-20.68-8.25-30.8-3.04-9.43-7.18-18.35-13.51-26.13-5.11-6.28-4.29-15.96,1.73-21.2,4.9-4.27,4.23-9.79,3.31-15.23-.78-4.6-3.07-8.61-6.01-12.24-4.78-5.9-2.83-12,4.56-13.62,4.28-.94,8.68-1.49,13.06-1.79,3.34-.23,6.26-1.26,9.12-2.82,4.36-2.39,8.61-4.99,13.38-6.53,4.95-1.6,9.45-.2,12.86,3.8,5.82,6.84,8.29,15.03,9.11,23.69,1.28,13.44,2.31,26.91,2.5,42.32ZM268.64,119.37c.1-4.21-.58-8.37-.96-12.55-.21-2.31.07-4.71-.94-6.91-.84-1.82-2.73-3.29-4.11-2.07-2.59,2.29-5.65,1.81-8.47,2.58-2.89.79-3.18,1.47-1.62,3.97,1.48,2.38,2.26,4.68.01,7.17-1.39,1.55-1.2,3.41.07,5.08,2.22,2.93,3.31,6.32,4.26,9.81.63,2.31.86,4.76,2.08,6.9,1.91,3.35,4.7,3.39,6.69.1,2.62-4.35,3.05-9.18,2.99-14.1Z"/>
  </g>
  <g>
    <text class="cls-1" transform="translate(450.34 173.72)"><tspan x="0" y="0">HAPPY MILE</tspan></text>
    <text class="cls-1" transform="translate(452.25 351.75)"><tspan x="0" y="0">RUN CLUB</tspan></text>
  </g>
</svg>