<?xml version="1.0" encoding="UTF-8"?>
<svg id="Layer_1" data-name="Layer 1" xmlns="http://www.w3.org/2000/svg" viewBox="0 0 528.62 83.59">
  <defs>
    <style>
      .cls-1 {
        fill: #87c3d0;
      }

      .cls-2 {
        fill: #e2eff3;
      }

      .cls-3 {
        fill: #d0e8ed;
      }

      .cls-4 {
        fill: #f3f6f6;
      }

      .cls-5 {
        fill: #9acdd9;
      }

      .cls-6 {
        fill: #dcecf1;
      }

      .cls-7 {
        fill: #221f20;
      }

      .cls-8 {
        fill: #c7e3ea;
      }

      .cls-9 {
        fill: #ecf4f5;
      }

      .cls-10 {
        fill: #6cadbe;
      }

      .cls-11 {
        fill: #c0dfe7;
      }

      .cls-12 {
        fill: #71b1c1;
      }

      .cls-13 {
        fill: #a4d2dc;
      }

      .cls-14 {
        fill: #66a5b8;
      }

      .cls-15 {
        fill: #b3d9e2;
      }

      .cls-16 {
        fill: #91c8d4;
      }

      .cls-17 {
        fill: #d5e9ef;
      }
    </style>
  </defs>
  <g>
    <path class="cls-10" d="M65.37,48.55c.55,1.32,1.38,2.65,1.86,4.08.02.07.12.14.19.19.02.06-.01.13,0,.19v.19c-1.81-.01-.71-.63-.93-.93-1.22.31-.54.25-.55.82,0,.12-.31.09-.34.19-.07.21.08.71-.23,1.02,1.1-.18.43,1.22.09.19l-.46,1.11v-.93s-.56.19-.56.19c-.1.32.45.09.37.28-.05.12-.29.32-.46.28-.24-.54-.64-.69-1.21-.75l.37.37c.1.15-.36.34-.37.37-2.48,1.09-5.14,1.8-7.66,2.79-.19.08-.12.36-.13.37-.06.03-.74.22-1.07.35-2.27.91-4.87,1.88-6.9,2.7-2.41.98-4.79,2.02-7.23,2.9-.39.55,2.16,5.07,2.58,5.92.24.49.5.99.74,1.48.06.13.12.25.19.37.26.52.34,1.36.93,1.67,0,.06-.01.13,0,.19.09.52.3.43.37.56.05.09.03.19.19.37l2.54,5.58c3.27-.01,6.54-.01,9.81,0,1.58,0,3.32-.22,4.91,0,1.12.15,2.87,2.14,1.2,2.78h-16.89s-.9-.2-.9-.2l-10.77-18.35-12.12,11.03,4.49,5.68c.56.78,0,1.73-.9,1.85-2.42.32-6.23-.02-8.83,0l-.47-1.12-.09.74-.6-.05-.14.42c-.19,0-.37,0-.56,0-.78-.94-1.12-.21-1.76-.17-.52.03-1.57-.11-1.49-.76l.09.74c-.38.25-3.26-.33-3.9.19-2.63-.01-5.26.01-7.88,0-1.06-.3-.9-1.37-.8-2.27,1.93-7.11,3.96-14.19,5.89-21.3.33.06-.11.52.09.56.49.09.94.14.74-.37.84.28.29,1.18,1.4.92l-.09-.56.64.37c.22-.67-.39-.56-.55-.84-.03-.05,1.07-.98.93-.09-.42,1.51-.75,3.11-1.11,4.64-.09,0-.15,0-.18.1l-.93,3.99c-.6,1.05-1.44,4.7-1.8,6.09s-1.26,4.22-1.35,5.42c0,.12,0,.25,0,.37,3.22,0,6.44,0,9.65,0,2.34,0,4.71.07,7.05,0,.51-.02,1.02.05,1.53-.05.2-.04.61-.07.49-.39l-3.6-4.76-.07-.6,6.28-5.89c2.5-2.57,5.78-4.79,8.17-7.42,1.93-1.96,4.04-3.77,5.94-5.75.35.06-.03.47-.14.56-.24.21-.73.39-.91.61s-.23.77-.49,1c-.19.16-.55.14-.65.29-.08.12,0,.43-.05.49-.13.12-.66-.04-.73.02-.19.17.48,1.13-.69.98-.04.32-.91.71-.79.96.19.41.65.1.71.15s0,.28.04.31c.34.25.9-.97,1.23-1.08.38-.13,1.08.31,1.55.17-.54-.55-.14-.93-.18-1.37,0-.1-.63-.18-.38-.67.4.11.49,1.02.93.65l-.37-.46.47-.18c-.15.58.14.25.39.43.15.11.08.28.43.41.76.28.8-.29.85-.29.48,0,.29.57,1.39.19,3.23-1.11,6.84-2.89,10.02-4.27.24-.1.56-.06.74-.37l2.97-1.3c.06,0,.13,0,.19,0,.47-.07.77-.43,1.11-.56,2.72-.97,5.33-2.15,8-3.24.29-.12.65.02.54-.47ZM65.46,52.82v.19c.12-.06.12-.12,0-.19ZM63.14,54.49c.09-.77-.27-.77-.18,0h.18ZM40.68,59.69s.07-.39-.09-.37c-.51.29-.12.58.09.37ZM41.52,59.51v.19c.12-.06.12-.12,0-.19ZM41.33,60.25v.19c.12-.06.12-.12,0-.19ZM6.71,60.81c-.26-.13-.5.12-.37.18.26.13.5-.12.37-.18Z"/>
    <path class="cls-12" d="M76.32,7.16c0,.58.61.37.46.92.86-.68.51-.17.85.08.23.16.5.09.7.42.17.27.17.86.4,1.18l-1.39.19.09.18c-.68.12-5.14.79-5.21,1.04-.2.73.36.62.67.99,1.08,1.3,2.14,2.63,3.24,3.91l-1.11-.37c-.09.31.58.06.37.46-.08.15-.89.51-.92.47-.05-.06-.25-1.15-.84-1.07-.86.12-.41,1.2-.46,1.25-.09.1-.79-.31-.93-.18-.08.08.35.64,0,.74-.99-1.13-1.97-2.31-2.99-3.42-.37-.4-.48-.25-.91-.85-.39-.55-.25-.97-1.19-.94-4.66.94-9.35,1.74-14.03,2.61l-.18-.93c-.04.22.14.6-.12.75-.35.2-2.87.45-3.61.63-.25.06-.46.27-.54.29-4.91,1.16-9.91,1.83-14.83,2.89-4.4,3.48-8.95,6.76-13.39,10.18-.65.5-2.49,1.55-2.9,2.02-.19.21-.15.48-.24.69-.14.32-.11.5-.19.74,0,.02-.12.1-.19.37-.03.11.03.26,0,.37-.04.16-.14.33-.19.56-.01.06.01.13,0,.19-.23.43-.42,1.02-.56,1.48-.03.1.03.27,0,.37,0,.02-.12.15-.19.37-.07.25-.12.5-.19.74-.03.11.03.27,0,.37-.02.06-.13.19-.19.37-.31,1.11-.61,2.23-.93,3.34-1.01,3.57-2.2,7.13-2.97,10.77-.02.05-.16.12-.19.19-.88,2.53-1.33,5.23-2.04,7.8-.04.16-.33.4-.37.56.14-.89-.96.04-.93.09.16.28.77.16.55.84l-.64-.37.09.56c-1.1.26-.55-.64-1.4-.92.2.51-.25.46-.74.37-.2-.04.23-.5-.09-.56.07-.26.17-.5.19-.56l.09.18c.19-.01.15-.38-.09-.37,2.69-9.87,5.31-19.77,8.19-29.58l17.62-13.74c14.06-3.06,28.33-5.59,42.49-8.27l1.2.74c.42-.27.21-.52.1-.93.1-.02.3-.14.56-.19ZM66.29,11.06c-.29-.3-.74.58-.55.93.1.14.71-.77.55-.93ZM68.15,11.8c.14-.44-.8-.86-.93-.74-.23.21.67.95.93.74ZM66.76,11.25v.19c.12-.06.12-.12,0-.19ZM72.79,15.15c-.26-.13-.5.12-.37.18.26.13.5-.12.37-.18ZM72.42,15.89c.13-.26-.12-.5-.18-.37-.13.26.12.5.18.37ZM6.62,59.69v.19c.12-.06.12-.12,0-.19Z"/>
    <path class="cls-12" d="M63.14,55.42s.47-.22.37-.37l-.37-.37c.57.06.97.21,1.21.75.17.04.41-.16.46-.28.08-.19-.46.05-.37-.28l.55-.19v.93s.47-1.11.47-1.11c.33,1.04,1.01-.37-.09-.19.3-.31.16-.81.23-1.02.03-.1.34-.07.34-.19,0-.57-.67-.51.55-.82.22.3-.88.92.93.93.16,0,.32-.01.37-.19.06,0,.13,0,.19,0,0,.12,0,.25,0,.37,0,.06,0,.12,0,.19-.11.02-.31-.04-.37,0l-.19.19c-.11.41-.03,2.31,0,2.88.29,5.03,1.18,11.08,1.86,16.15.35,2.63.81,5.27,1.32,7.87,2.62,0,5.25.05,7.88.03.51,0,.99-.18,1.57-.19.01,0,.06.19.19.19s.25,0,.37,0,.17-.19.19-.19c.44-.01.89.22,1.39.2.88-.03,1.8-.28,2.69-.29-1.57-1.34-3.09-2.73-4.64-4.09-.8-.7-1.24-.46-1.3-1.58,0-.06,0-.12,0-.19s0-.12,0-.19c.93-2.03,1.39-4.25,2.23-6.31l.18.19v-.56c.06-.12.02-.25.19-.56.47-.84.66-1.17,1.12,0l.18-.36c.2.02.62-.29.74-.19.38.35-.74.39-.37.74.08.08.66-.27.74-.19l.37,1.49c-.04.07-.14.12-.19.19-.43.67-.58.8-1.3,1.21l.74.65c-.06.17-.16.3-.19.37l-.18-.19v.37s-.84,3.34-.84,3.34l7.91,7.15c.17.25.07.99-.02,1.27-.08.25-.31.09-.37.13-.54-.17-1.09.48-1.21-.19l-.47.56c-.12,0-.25,0-.37,0l-.09-.18-.09.18c-.12,0-.25,0-.37,0-.13-.51-.79-.26-1.11,0-.19,0-.37,0-.56,0l-.65-.55c.13.63-.2.56-.37,0-.09.57-1.51.45-2.05.39-.24-.03-1.08-1.14-1.57.17-.06,0-.12,0-.19,0-.37-.75-1.3.28-1.77-.56-.44.95-.68,0-.74,0-.18,0,0,.35-.21.39-.39.07-.97-.49-1.19.17-2.34-.01-5.49.26-7.71,0-.4-.05-.79-.11-.98-.5-1.47-8.13-3.12-16.23-4.49-24.37.11-.51,1.21-.44,1.3-.56.11-.16-.17-.52-.17-.66,0-.08.63-.06.36-.45-.02-.02-.32.21-.46,0-.08-.12-.05-.35-.16-.5-.16-.21-.62-.26-.49-.81l-.74.56c-.01-.12-.32-.41-.19-.74ZM82.63,67.49c-.52-.5-.18.65-.18.93.43.05.24-.87.18-.93ZM83.65,67.49v.19c.12-.06.12-.12,0-.19ZM83.56,68.04c-.33-.3-.84.32-.74.74.34.13.91-.58.74-.74ZM82.54,82.52v.19c.12-.06.12-.12,0-.19ZM85.97,83.08c.13-.26-.12-.5-.18-.37-.13.26.12.5.18.37ZM88.1,82.89v.19c.12-.06.12-.12,0-.19Z"/>
    <path class="cls-12" d="M98.78,52.45l.37-.56c.78.23.64.12.93-.65.02-.05-.74-.16-.37-.46.07-.06.91.27,1,.36.22.2,0,.85.49.57.02-.01-.08-.39.37-.37.03.09.14.21.19.37-.59.47.1.77.19.93.07.12.13.25.19.37l-.14.13c.14.64-.24.99.43,1.17l.09-.18c2.43,6.49,4.09,13.25,6.52,19.74l10.71,8.23c.15.68.07,1.16-.66,1.32-1.35.29-4.26.03-5.81.04-.74-.6-1.73-.26-2.66-.27-.33,0-.57-.35-.5.27-.06,0-.12,0-.19,0-.41-.21-1.33-.61-1.11,0-2.16-.02-4.34.09-6.49-.1-2.29-2.24-4.35-4.68-6.51-7.05-.14-.15-.14-.42-.18-.46.41-1.56-.23-1-.99-1.1-.18-.03-.1-.59-.31-.19-.1-.11-.24-.22-.37-.37l1.3-.19c.16-.68-.87-.69-.93-.74-.44-.43.53-.34.56-.37.05-.05-.32-1.02-.19-1.3.66-.15.28.73.37,1.11.75.15,0-.53.19-.74.23-.26.68.46.56.74.15.13.85-.28.93-.56,2.27,2.77,4.59,5.51,6.77,8.35h9l-6.31-5.34c-1.93-5.7-3.9-11.39-5.76-17.12-.59-1.84-1.09-3.73-1.67-5.57Z"/>
    <path class="cls-12" d="M119.56,24.05c.37,1.23.73.23.87.19.22-.06,2.35-.2,2.57-.17.45.07.48.38.82.53l.28-.74c.47.51-.01.88.83.65-.28.38.23.7.1,1.21.32-.24,1-.25,1.27-.54.34-.36-.23-.77.68-.39l-.28-.55c.33.24.31.09.48.46.05.1.37,1.04.37,1.1,0,.11-.32.16-.46.3-.11.11-.08.32-.11.36,0,0-.14.01-.19,0-.02,0,.04-.19-.29-.19-.63-.01-.79.44-1.1-.37-.26.39-.47.79-1.02.74l.18-.74c-.36-.06-.1.46-.18.56-.1.11-.48-.11-.55-.28-.14-.31.73-.33.28-.83-.62.18-.42.63-.65.98-.47.7-.72.27-.88.36-.04.02-.04.24-.1.28-.34.18-.81-.18-.69.43-4.02.7-8.06,1.28-12.05,2.15-2.49,2.4-4.78,4.99-7.15,7.51-.33.35-.88.57-1.03.74l-.19.37c-.06.06-.13.12-.19.19-.94.24-.78-1.36-1.39-1.44s-.42.62-.56.9c-.1.19-.72-.14-.84.73.1.03.34-.04.37,0,.14.19.03.76-.37.56.01-.18-.03-.38,0-.56-.78-.21-1.52-.27-1.3.74l-.74-.56.09.93c-.52-1.38-.45-.23-1.38-.58l-.02-1.09c-.48-.03-.82.46-.74-.18h-.18c.08.76-.99-.08-.74.93.41.29.41-.78.74-.37.09.11-.09.96,0,1.11.01.02.34-.22.46-.02.04.06.51,1.26.46,1.31-.31.36-.82-.92-.74-1.11l-1.11.93c-.37-.88.33-.65.18-1.48h-.93c-.27.43.79.4.37.74-.24.2-1.72-.32-1.85-.18v1.11s-.74-.37-.74-.37c.13-.47.54-1.23.37-1.67.43.08.56-.16.84-.37.78-.6,1.54-1.25,2.32-1.86,2.27-1.78,4.34-3.67,6.5-5.57.29-.26.63-.48.93-.74.07-.06.12-.13.19-.19.51-.45.91-.94,1.3-1.3.36-.33.97-.59,1.48-1.11.13-.13.23-.2.37-.37.08-.04.13-.16.19-.19.37-.18.28-.13.56-.37.32-.27.73-.79.93-.93.27-.2.61-.29.93-.37,3.37-.9,8.81-.98,12.44-1.3ZM119.75,24.8c-.7-.17-.21.71-.38.91-.11.12-.88.09-1.1.01-.17.48.28.31.33.46.03.09-.06.74.04.84.58.63.15-.88.19-.93.91.5.71-.64.93-1.3ZM121.79,26.47c-.26-.13-.5.12-.37.18.26.13.5-.12.37-.18ZM96.36,38.35c.09-.77-.27-.77-.18,0h.18Z"/>
    <path class="cls-1" d="M55.34,58.58v.37c-.45.28-.35.78,0,1.11v.56l-.18.09.18.09c0,.19,0,.37,0,.56-.47-.24-.47.98,0,.74-.02,1.19-.19,2.5-.19,3.62v5.94c0,.69-.25,1.6-.19,2.51.45,0,.42.29.56.37l-.56.18c-.01-.18.01-.37,0-.56-.21,0-.26.76-.56.37-.16-.21.72-2.72.37-3.34-.3-.08-.09.32-.3.37-.18.04-.42-.03-.62,0l.18-.74c-.79-.25-.8.86-1.2.74-.32-.13.05-.88-.46-.54-.37.24-.35,1.05-.38,1.1-.04.06-.86-.25-1.11,0-.18-.28.96-2.44-.19-2.6-.09-.36.41,0,.37-.37l-1.3-.19c-.14.44,1.23.87.28,1.11-.23-.14-.22-.48-.28-.55-.17-.2-.22.77-.55.37-.19-.23.59-.89-.24-1.05-.52-.1-.32-.24-.43-.26-.35-.05-1.23.39-1.74.2-.09.84.11.5.74.37v.74c.71.35,1.07-.73,1.21-.74.55-.05-.19.83-.01,1.11.26.42,1.68.46,1.78.55.53.5-1.06.34-1.17.37-.17.05-.52.93-1.06.74-.08-.08.22-.48.17-.55-.07-.08-.43.13-.36-.19,1.13-.24-.08-.36-.15-.41-.08-.07-.02-.36-.1-.45-.48-.54-1.26-.57-1.61.12.46.15,1.63.37,1.48,1.01-.09.38-.6-.04-.74.66-.82-.2-.63-.48-1.3-.74-.08,1.5.22.86.81.91.18.02.02.62.49.39.02-.18-.03-.39,0-.56.15.04.38-.03.56,0-.04,1.46-.81.67-1.84,1.09-.29-.81-1.75-2.13-1.51-.54l-.55-.37c-.06-.12-.12-.25-.19-.37.36-.47-.02-2.63-.74-1.48-.42-.85-2.98-5.37-2.58-5.92,2.44-.88,4.82-1.92,7.23-2.9,2.03-.82,4.63-1.8,6.9-2.7.33-.13,1.02-.33,1.07-.35ZM53.86,69.9c.13-.26-.12-.5-.18-.37-.13.26.12.5.18.37ZM43.93,70.46v.19c.12-.06.12-.12,0-.19ZM54.32,71.01v.19c.12-.06.12-.12,0-.19Z"/>
    <path class="cls-16" d="M46.99,72.13c.14-.7.65-.28.74-.66.15-.64-1.02-.86-1.48-1.01.36-.69,1.14-.66,1.61-.12.08.09.01.38.1.45.07.06,1.28.18.15.41-.07.33.29.12.36.19.05.06-.25.47-.17.55.54.18.89-.7,1.06-.74.11-.03,1.7.13,1.17-.37-.1-.1-1.52-.14-1.78-.55-.18-.28.56-1.17.01-1.11-.14.01-.5,1.09-1.21.74v-.74c-.64.13-.83.47-.74-.37.52.19,1.39-.25,1.74-.2.11.02-.09.16.43.26.83.16.06.82.24,1.05.33.4.39-.57.55-.37.06.07.05.42.28.55.95-.24-.42-.67-.28-1.11l1.3.19c.04.37-.46,0-.37.37,1.14.16,0,2.33.19,2.6.26-.25,1.07.06,1.11,0,.03-.05.02-.86.38-1.1.51-.34.14.42.46.54.41.12.42-.99,1.2-.74l-.18.74c.2-.02.44.05.62,0,.21-.05,0-.45.3-.37.35.62-.53,3.13-.37,3.34.3.39.35-.37.56-.37.01.18-.01.37,0,.56l.56-.18c1.92,1.2,4.55,3.68,6.31,5.29.26.23.54.45.55.84-1.6-.22-3.33.01-4.91,0-3.27-.01-6.54-.01-9.81,0l-2.54-5.58c.16.19.32.48.56.56-.12-.18.34-1.22.39-1.27.2-.19.89.26.72-.4-.64-.2-1.6-.62-1.95-1.12-.2-.02-.28.91-.28,1.12-.59-.32-.67-1.15-.93-1.67l.55.37c-.24-1.59,1.22-.27,1.51.54,1.03-.42,1.79.37,1.84-1.09-.18-.03-.4.04-.56,0-.03.16.02.38,0,.56-.47.23-.3-.37-.49-.39-.59-.05-.89.58-.81-.91.67.26.48.54,1.3.74ZM50.98,72.5v.19c.12-.06.12-.12,0-.19ZM53.77,72.68v.19c.12-.06.12-.12,0-.19ZM53.49,73.24c-.27-.04-.63,0-.74.28-.05.12.74.13.37.65.63.15.31-.54.37-.93Z"/>
    <path class="cls-14" d="M112.88,4.75c-.65.25-1.29-.28-1.39.74-.05-.31-.58-.74-.6-.78-.03-.06.34-.6-.32-.32-.05.02-.82.8-.66.92.1.08.55-.12.56.09s-.45-.07-.37.28c.89-.15.8.82,1.02,1.11.03.05.82.65.89.69.08.05,1.17.13.87.61-3.16-1.51-6.54-.93-9.62-1.98-1.7-.58-3.85-2.31-5.51-2.84-.29-.09-.29,0-.24.24.49,2.71,1.09,5.41,1.64,8.11-.7-.61-1.35-1.34-1.95-2.04-.54-.62-1.07-1.45-1.58-2.04.47-.78-.17-1.6-.19-2.41-.35-.03-.28.65-.37.74-.45.43-.51-.89-.56-.93-.37-.32-.72.68-1.11.37-.42-.34.48-.32.37-.55l-.56.09v-.83c.23-.04.55-.32.92-.19.35-7.54,7.09-1.78,10.77-.64,2.51.77,5.46.55,7.98,1.58ZM110.75,6.42v.19c.12-.06.12-.12,0-.19ZM110.47,6.61c-.2-.2-.57.17-.37.37s.57-.17.37-.37Z"/>
    <path class="cls-10" d="M63.33,56.16l.74-.56c-.13.54.34.59.49.81.11.15.09.38.16.5.14.21.44-.03.46,0,.28.39-.36.38-.36.45,0,.14.28.51.17.66-.08.12-1.19.05-1.3.56-.14-.81-.28-1.59-.37-2.41ZM64.44,56.91h-.37c-.06.27.08.39.28.55l.09-.55Z"/>
    <path class="cls-10" d="M121.79,27.39c-.12-.61.35-.25.69-.43.06-.03.05-.25.1-.28.16-.08.42.34.88-.36.23-.35.04-.8.65-.98.45.5-.42.52-.28.83.08.17.46.39.55.28.08-.09-.18-.62.18-.56l-.18.74c.55.05.76-.35,1.02-.74.31.8.47.35,1.1.37.32,0,.27.19.29.19-1.67.3-3.34.64-5.01.93Z"/>
    <path class="cls-14" d="M92.47,4.19c.1,0,.29.23.56,0-.05.8-.27,1.75-1.17,1.47-.13-.04-.12-.22-.2-.28-.35-.22-.57.14-.48-.63s.69-.59,1.3-.56Z"/>
    <path class="cls-14" d="M8.76,83.45c.63-.51,3.52.06,3.9-.19l-.09-.74c-.08.65.97.8,1.49.76.64-.04.98-.77,1.76.17-2.35,0-4.71.01-7.05,0Z"/>
    <path class="cls-14" d="M80.96,83.45c.49-1.31,1.33-.2,1.57-.17.54.06,1.97.18,2.05-.39.17.57.49.64.37,0l.65.55c-1.54.02-3.1,0-4.64,0Z"/>
    <path class="cls-14" d="M76.87,83.45c.22-.66.8-.1,1.19-.17.2-.04.03-.39.21-.39.06,0,.3.95.74,0,.46.84,1.39-.2,1.77.56-1.3,0-2.6,0-3.9,0Z"/>
    <path class="cls-14" d="M113.25,83.45c-1.05,0-2.11,0-3.16,0-.07-.62.17-.28.5-.27.93.01,1.92-.32,2.66.27Z"/>
    <path class="cls-10" d="M75.76,7.35c.12.41.32.66-.1.93l-1.2-.74c.47-.09.9-.11,1.3-.19Z"/>
    <path class="cls-10" d="M94.32,74.54c.21-.4.12.17.31.19.77.11,1.4-.45.99,1.1-.31-.34-.87-.83-1.3-1.3Z"/>
    <path class="cls-10" d="M83.56,70.64l-.74-.65c.72-.41.87-.54,1.3-1.21-.11.64-.34,1.24-.56,1.86Z"/>
    <path class="cls-14" d="M16.37,83.45l.14-.42.6.05.09-.74.47,1.12c-.43,0-.87,0-1.3,0Z"/>
    <path class="cls-14" d="M88.2,83.45l.47-.56c.11.66.66.02,1.21.19-.8.49-.8.32-1.67.37Z"/>
    <path class="cls-10" d="M102.49,54.12l-.09.18c-.67-.17-.29-.53-.43-1.17l.14-.13c.23.49.23.73.37,1.11Z"/>
    <path class="cls-10" d="M101.93,52.64c-.09-.16-.78-.46-.19-.93.09.31.26.56.19.93Z"/>
    <path class="cls-10" d="M55.34,60.06c-.35-.33-.45-.84,0-1.11v1.11Z"/>
    <path class="cls-14" d="M87.27,83.45c-.37,0-.74,0-1.11,0,.33-.26.99-.51,1.11,0Z"/>
    <path class="cls-14" d="M109.91,83.45c-.37,0-.74,0-1.11,0-.22-.61.7-.21,1.11,0Z"/>
    <path class="cls-10" d="M55.34,61.36c0,.25,0,.5,0,.74-.47.24-.47-.98,0-.74Z"/>
    <path class="cls-10" d="M83.37,71.01c-.02.06-.13.13-.19.19v-.37s.19.19.19.19Z"/>
    <path class="cls-10" d="M101.38,38.16l.19-.37s-.03.2-.19.37Z"/>
    <path class="cls-10" d="M6.16,59.13c.24-.01.28.35.09.37l-.09-.18c.02-.06-.02-.13,0-.19Z"/>
    <path class="cls-10" d="M55.34,60.8l-.18-.09.18-.09c0,.06,0,.12,0,.19Z"/>
    <path class="cls-14" d="M90.98,4.75l-.19-.19c.06.02.13.13.19.19Z"/>
    <path class="cls-14" d="M87.83,83.45c-.06,0-.12,0-.19,0l.09-.18.09.18Z"/>
    <path class="cls-17" d="M90.61,38.72c.17.44-.24,1.2-.37,1.67-1.41,5.1-3.44,10.5-5.15,15.55-.21.61-.42,1.39-.79,1.9.29-1.31,1.54-4.24,1.48-5.2,0-.06.01-.18,0-.19.48-.3.42-.73.56-1.11.39-1.12,1.04-2.74,1.26-3.85.06-.3-.16-.53-.15-.68s.36-.16.45-.3c.71-1.19-.17-.88-.24-1.21-.11-.51.81-.75-.95-.64.01.62.59.86.54,1.59-.06.87-.88.63-1.18.07-.15-.28-.08-.71-.1-.74-.11-.12-.66.21-.82.2-.12,0-.08-.36-.22-.38-1.21-.13-.94-.38-1.49-.5-.48-.11-1.53.26-2.11-.05.08.47.26.9.2,1.4-.03.29-.64.39-.39,1.01-.85.15-.41-.26-.65-.74-.21-.42-1.04-.49-1.45-.38-.21.06-.1.35-.12.37.2-.2.58.16.37.37s-.57-.17-.37-.37c-.02.02-.25-.06-.33.04-.2.25.28.98-.66.7-.13-.04-.12-.37-.23-.37-.09,0-1.4.26-1.52.31-.26.11-.25.45-.54.58-.12.05-.99.23-1.1.22-.24-.01-1.76-1.65-1.93-1.48.08.28.09.73.2.97s.51.01.36.51c-.66.13-.84-.41-.93-.93-.45-.18-.79.55-.86.56-.43.06-1.33-.55-1.18.46,0,.05.73.16.38.46-.1.08-1.36-.06-1.67,0,0,.67.57,1.06-.37.93-.07-.07.39-.91-.31-1.09s-.72.84-.8.91c-.38.28-.87-1.25-1.48-.74-.21.18,1.59,3.84,1.67,4.45h-.19c-.01-.06.02-.13,0-.19-.03-.09-.1-.15-.19-.19-.47-1.43-1.31-2.77-1.86-4.08-1.58-3.78-3.83-8.79-5.01-12.62-.02-.06.02-.13,0-.19l.37,1.11,1.65-.59.02-.52c.06-.07,1.07.43,1.2.56.21.22.25.72.29.74.09.06.45-.18.65-.17.3.02.54.37,1.1.38.32,0,.81-.24.83-.21.07.08-.09.76.47.75.23,0,1.06-.78,1.53-.89.35-.08,1.29,0,1.34-.05.09-.08-.56-.73.37-1.03.27-.09.58-.02.8-.09.16-.05.17-.37.22-.36,1.01.11-.09.95.1,1.11,2.21.14.54-1.97.74-2.23.29-.36.39.35.49.37.38.08.88-.1,1.24,0,.15.04.09.38.21.38.19,0,1-.69,2.01-.67,1.1.02,1.16.47,1.98.67.17.51-.48.45-.79.37-.14-.04-.41-.68-.79-.74-.09-.02-.07.25-.16.29-.2.11-.62.17-.67.37-.16.62,1.05.92,1.31,1.28s.08,1.09.73,1.03c.13-.36-.21-.56-.28-.75-.2-.58.58-.17.73-.17.09,0,.17-.74.48-.38.03.04-.43,1.25.18.74.02-.02.04-.27.2-.44.13-.14.47-.2.52-.41.13-.47-1.2-2.15-1.83-1.56.14-1.43.85-.43,1.57-.36.9.09,1.68-.71,1.58.73.39.08.66-.4,1.02-.38.06,0,.06.61.9.39.15-.04.33-.5.33-.64,0-.15-.37-.09-.38-.11-.33-.41.27-.31.4-.38s.26-.7.52-.36c.07.09-.12,1.94-.18,2.23.32-.22,1.6.06,1.67,0,.06-.05-.39-.89.18-1.59.24-.29.71-.12.56-.63-.94.1-1.23-.43-1.11-1.3,1.53,1.71,3.04,3.44,4.54,5.2.24.28,1.36,1.21,1.39,1.3ZM74.26,35.21c-.18-.16-1.92.06-1.47.72l1.67.19c-.05-.17-.16-.87-.2-.91Z"/>
    <path class="cls-3" d="M11.73,51.9c.22.18.89.34.93.37.05.04-.18.31-.18.44,0,.03.43.5.46.5.27-.02.43-.33.58-.36.29-.06.44.45.8.35-.44-.76.3-2.1.37-.74.23.24.71-.87,1.55-.38.2.12.07.4.17.5.23.24.34.01.84.74.56.82.33-.38.43-.49.08-.08.88.14.44-.38-1.3.4-.03-.55-.09-.83-.08-.39-.74-.11-1.06-.23-.7-.27.15-.67.58-.62.12.02.09.34.24.38.24.06.65-.08.78.03.04.04.41.93.39.99-.03.12-.57-.02-.37.46.32.13.99-.39.93-.65-.03-.14-.29-.05-.36-.23-.45-1.11-.2-1.29.92-1.35-.12,1.07.11.58.62.78.32.12.23.74.78.52.86-.34-.82-1.69,0-2.04.32-.14.36.64.53.96.5.91.56-.15.85-.5.76-.89,1.49-.2,2.11-.27.1-.01.13-.26.27-.36.16-.11.43-.08.61-.28.15-.18.12-.56.2-.63.09-.08,1.18-.13,1.45-.22-.32.71-.64,1.34-.74,2.13.4.33,1.2-.18,1.43-.52.11-.17,0-.47.1-.64.08-.13.46-.15.61-.42.22-.39-.17-.91.55-.74.16.04.04.29.16.49.24.39.44.09.12,1-.61.03-.86-.22-.74.56.65-.02.6-.16.74-.56.76-.04.72-.23,1.4-.55.31-.45-.37-.95,1.01-.75-.12.22-.32,1.25-.37,1.3-.03.03-1.04-.05-.56.37.45.39.52-.35.56-.37.09-.05.54.05.79-.04.29-.1.46-.54.75-.49.41.06,1.64,1.04,1.92,1.06.14,0,1.16-.45,1.55-.34l-.18.93c.72-.43,1.81.47,1.48-.62-.04-.13-.82-.09.07-.98.83-.83,1.7,0,1.62.94-.01.12-.89.18-1.1.79-.09.17.39.98.62,1,.89.09.9-.37.84-1.13.82-.11.43.13.59.61.37,1.1.69-.59,1.08-.87.99-.7,1.86,1,1.48-1.03.18-.17,1.35.49,1.48-.1.12-.51-.83-.71-.56-1.01.04-.05.85-.25.92-.18.04.04-.02.37.11.54.26.34.85.03.08.94-.12.11-.32.34-.56.56-.38.38-.63.36-1.11.19v.93c-.07.06-.12.13-.19.19-.02.01-.19.02-.37.19s-.36.37-.56.56c-.29.27-.49.5-.74.74-.19.18-.36.37-.56.56-.56.03-.79.57-1.11.93s-.61.79-.93,1.11c-1.9,1.98-4.01,3.8-5.94,5.75.02-.03-.02-.2.07-.3.22-.26.67-.43.78-.79.29-.97.02-.62-.34-.76-.67-.26.3-.41.41-.47.49-.28.96-2.27.57-2.69-.43-.46-.41,1.04-.5,1.26-.06.15-.81.87-.98.77-.06-.03.13-.54-.38-.36-.22.81.3.69.35.76.16.21-.51.87-.71.71-.03-.02.04-.31-.13-.36-.28-.08-.68.04-.99,0,.55-1.07-.43-.9-.56-1.85.23-.09.86.27.93.18.02-.02.02-.52,0-.55-.27-.32-1.89.27-2.41.18-.15.66.52.22.72.39.06.05.15.72.21.91-.48.19-.34-.34-.46-.37-.67-.17-.35.25-.52.5-.29.4-1.22.98-1.43.34-.22-.68.49-.38.66-.64.16-.24.07-.66.08-.94-.44-.13-.65.96-1.11.55-.06-.05.56-1.19-.37-1.11-.12.95-.85.39-1.49.37-.07.06.4.71-.1.92-.43.18-.14-.43-.39-.56s-1.08-.29-1.29,0c-.1.14.05,1.61.11,1.68.33.41.33-.66.74-.37.06.34-.1,1.18-.48,1.27-.94.2-.77-.66-.82-.71-.11-.11-.62.03-.74.28-.2.42.47.21.54.29.1.11-.02.69.02.92-.76,0-.86.18-.56-.56-.62-.17-.28.47-.37.56-.07.06-.9-.15-.93-.19-.13-.19.53-.76.37-1.11-.61-.07-.32.69-1.01.56-.64-.12-.36-.74-.56-.75-.9.19-.43.67-.46,1.01,0,.06-.56.15-.19,1.04-.39.15-.93-.21-1.19-.19-.13,0-.03.52-.38.38-.8-.33.33-.66.09-.92-.08-.09-2.17-.89-2.29-.89-.39,0-.46.43-.63.51-.52.24-1.12.09-1.68.51-.4.31-.32.61-.55.8-.26.21-1.25.35-1.32.41-.11.1.12.85-.4.43l-.18-.83-.56.93-.28-1.11c-.25.3.02,1.25-.65,1.11-.1-.31.3-.48.3-.64,0-.06-.39-1.12-.67-.84-.23.23-.67,3.13-.93,3.71-.08-.03-.15-.19-.18-.19.36-1.53.69-3.13,1.11-4.64.04-.16.33-.4.37-.56.07.13.34.15.37.19.02.03-.06.23.04.32.04.04,1.03.28,1.07.24l.19-1.3c-.59-.16-.27.48-.54.66-.14.09-.69.13-.76.08-.04-.03.03-.27,0-.37.58.1.55-.48,0-.37.36-2.2,1.64-4.82,1.86-6.87ZM28.62,54.87s-.32.03-.47.18l-.83.93c.93.43,1.3.25,2.23,0l.37.74c-.02-.21-.13-1.02-.21-1.09-.06-.05-1.51-.29-1.08-.77.02-.03.76.02.37-.37s-.35.34-.37.37ZM32.51,57.46c-.32-.32-.65.64-.56.74.32.32.65-.64.56-.74ZM22.86,58.58h-.37v.55h.37v-.55ZM21.19,58.95c-.2-.2-.57.17-.37.37s.57-.17.37-.37ZM13.4,59.51c-.41-.43-1.05.71-.74,1.11.22.28,1.04-.79.74-1.11ZM12.1,59.88l-.88.24-.42.87c.97-.18,1.52.09,1.3-1.11Z"/>
    <path class="cls-8" d="M8.01,64.52s.11.16.18.19c.26-.59.7-3.49.93-3.71.28-.28.68.78.67.84,0,.16-.41.34-.3.64.68.14.4-.81.65-1.11l.28,1.11.56-.93.18.83c.51.43.29-.32.4-.43.06-.06,1.05-.19,1.32-.41.23-.18.15-.49.55-.8.55-.42,1.15-.28,1.68-.51.17-.08.24-.51.63-.51.12,0,2.21.8,2.29.89.24.26-.89.6-.09.92.35.14.25-.37.38-.38.27-.01.8.34,1.19.19-.38-.88.18-.97.19-1.04.03-.34-.44-.81.46-1.01.2,0-.08.64.56.75.7.13.41-.64,1.01-.56.17.35-.5.92-.37,1.11.03.04.86.25.93.19.09-.08-.25-.72.37-.56-.31.74-.2.55.56.56-.04-.23.08-.8-.02-.92-.07-.08-.74.14-.54-.29.12-.25.63-.39.74-.28.05.05-.12.91.82.71.38-.08.54-.93.48-1.27-.41-.29-.41.78-.74.37-.05-.07-.2-1.54-.11-1.68.2-.29,1.03-.14,1.29,0s-.04.75.39.56c.5-.21.03-.86.1-.92.64.02,1.37.58,1.49-.37.92-.08.31,1.06.37,1.11.46.4.67-.68,1.11-.55-.02.29.08.7-.08.94-.17.26-.89-.04-.66.64.21.64,1.14.06,1.43-.34.17-.24-.14-.67.52-.5.12.03-.02.56.46.37-.06-.18-.15-.85-.21-.91-.2-.17-.87.27-.72-.39.52.09,2.14-.5,2.41-.18.02.02.02.53,0,.55-.07.08-.7-.27-.93-.18.13.95,1.11.78.56,1.85.31.04.71-.08.99,0,.17.04.11.34.13.36.2.16.88-.5.71-.71-.05-.07-.57.05-.35-.76.51-.18.32.32.38.36.16.1.92-.62.98-.77.08-.22.07-1.72.5-1.26.39.42-.08,2.4-.57,2.69-.1.06-1.08.21-.41.47.36.14.63-.21.34.76-.11.36-.56.53-.78.79-.09.11-.04.28-.07.3-2.38,2.64-5.67,4.86-8.17,7.42-.19-.37.8-.94.46-1.49-1.15-.02-.92.61-1.03.72-.09.09-.59-.04-.91.12-.06.03-.9.86-.94.92-.16.22-.3,1.24-.83.47-.26-.39.19-1.42-.36-1.3-.98.22.07,1.01-.56,1.29-.23.1-.27-.59-1.26-.33-.44.12-1.15.38-1.69.55-.36.11-.13.69-.67.53-.25-.79,1.95-2.14.3-2.05l-1.05,1.49c-.33.08-.02-.54-.46-.37-.66.26-.2,1.41-.93,1.11-.56-.23-.01-1.03-.09-1.11-.03-.03-.37.03-.54-.1-.22-.16-.27-.56-.51-.63-.21-.06-.49.18-.6.14-.02,0-.02-.26-.15-.34-.16-.1-.41-.09-.5-.16-.27-.22.12-.72-.49-.57.2.68.47,1.48-.51,1.05-.03-.01-.25-.63-.6-.31-.08.07.27.7.18.93-.28.14-1.23-.25-1.3-.18-.04.05.38,1.28-.28,1.12-.06-.01-.41-.62-.96-.68-.67-.07-1.14.64-.99-.62,1.22.48,1.35-.86,1.67-.93,0,.12-.01.25,0,.37.45.02.65.12.56-.37-.18.02-.4-.03-.56,0,0-.16.06-.4-.03-.52-.1-.13-.99-.29-1.09-.22-.52.4.93.27.55.74l-1.46-.17c.01.39-.52.62-.58.72l.93-3.99c.04-.09.09-.1.18-.1ZM25.09,58.21c-.2-.2-.57.17-.37.37s.57-.17.37-.37ZM26.95,58.21h-.55v.74h.55v-.74ZM15.07,62.47c.28-.27-.36-2.04-1.3-1.48-.11.5.49.48.65.75.15.25.07.71.09.74.02.02.53.02.55,0ZM24.35,66.56c-.57-.14-.48.8-.55,1.11.66.05.58-.67.55-1.11ZM17,67.79c-.29-.31-.98-.85-1.37-.47-.04.04-.18.94-.17.99.16.72,1.58.04,1.83-.36.07-.13-.19-.05-.29-.16Z"/>
    <path class="cls-11" d="M6.9,68.6c.06-.11.6-.33.58-.72l1.46.17c.38-.47-1.07-.34-.55-.74.1-.08.99.09,1.09.22.09.12.02.36.03.52.16-.03.38.02.56,0,.09.49-.11.39-.56.37-.01-.12,0-.25,0-.37-.32.07-.45,1.41-1.67.93-.15,1.26.32.54.99.62.55.06.9.67.96.68.65.17.23-1.07.28-1.12.06-.07,1.02.32,1.3.18.08-.23-.26-.85-.18-.93.35-.32.57.3.6.31.98.43.71-.37.51-1.05.6-.14.21.36.49.57.09.07.34.06.5.16.13.08.13.33.15.34.11.04.39-.2.6-.14.23.07.29.47.51.63.17.13.51.08.54.1.08.08-.47.88.09,1.11.73.3.27-.85.93-1.11.44-.17.13.45.46.37l1.05-1.49c1.65-.09-.56,1.26-.3,2.05.54.16.31-.42.67-.53.53-.16,1.25-.43,1.69-.55.99-.26,1.03.43,1.26.33.64-.28-.42-1.08.56-1.29.55-.12.1.91.36,1.3.53.77.67-.25.83-.47.04-.05.88-.89.94-.92.33-.16.82-.04.91-.12.11-.11-.12-.74,1.03-.72.34.54-.65,1.11-.46,1.49l-6.28,5.89.07.6,3.6,4.76c.12.32-.29.35-.49.39-.51.1-1.02.03-1.53.05-.19-.31-.7-.18-1.02-.19-2.01-.02-4.03,0-6.03,0-2.87,0-5.77.09-8.64,0-.35-.01-.7.02-1.01-.19.09-1.2,1-4.07,1.35-5.42s1.21-5.04,1.8-6.09ZM12.65,69.34c-.2-.2-.57.17-.37.37s.57-.17.37-.37Z"/>
    <path class="cls-13" d="M53.49,37.79l.56.19c.11.15-.65,1.05.43.73.1-.03.13-.24.29-.35.11-.07.36.01.4-.02.07-.06-.44-.83.18-.93-.49.41.77,1.47.87,1.49.5.1,1.06-.59,1.73-.19-.17.38-.53,1.53-.73,1.74s-.52.08-.57.12c-.06.05.09,1.18-.04,1.44-.03.05-.26.07-.32.19-.76,1.46-1.66,2.78-2.4,4.1-.47.85.34.44.16.86-.17.39-1.37.19-1.48.75-.08.4.49.4.54.48.04.07-.2.4-.18.61,0,.07.73.38.38,1.23h.56c.22-.47-.41-.35-.37-.46.28-.82,1.33-1.3,1.32-.18,0,.35-.4.28-.39.36.09.74.52.28.8.34.3.07.62.45,1.06.32-.13.32.03.95-.01,1.18-.01.05-.67.35-.36.68.07.07.71-.23.93-.18-.35.12-.65.49-1.11.56.27-.63-.65-.63-.56-1.02.09-.37.92-.06.74-.65-.86.48-1.23-.52-2.04,0,.02-.49.11-.65-.46-.56.06.67-.85.74-1.02,1.21-.13.37.31.2.43.5.14.33.05.88.16,1.04.58.86.62-.65.75-.84.36-.54.54.08.65.12.26.09.88.2,1.16.2l-2.97,1.3c-.32-.22.21-.86.14-1.08-.16-.48-1.02-.37-1.43-.21-.09.11.1,1.58.55,1.66-3.18,1.38-6.8,3.16-10.02,4.27,1.78-3.06,2.54-6.7,4.45-9.65.37-.56.76-1.13,1.11-1.67,1.66-2.53,3.11-4.75,4.64-7.42.26-.45.49-.84.74-1.3.09-.17.61-.62.74-.93ZM55.71,38.9c-1.16-.11-.01.45-.37,1.11.66.16.29-.73.37-1.11Z"/>
    <path class="cls-5" d="M60.36,35.93c1.19,3.84,3.43,8.84,5.01,12.62.11.49-.26.35-.54.47-2.67,1.09-5.27,2.27-8,3.24-.21-.05-.86.25-.93.18-.31-.33.35-.62.36-.68.05-.23-.11-.85.01-1.18-.44.13-.76-.25-1.06-.32-.28-.06-.71.4-.8-.34-.01-.08.39,0,.39-.36.02-1.12-1.04-.63-1.32.18-.04.11.59,0,.37.46h-.56c.35-.84-.38-1.15-.38-1.23-.02-.21.22-.54.18-.61-.05-.08-.62-.08-.54-.48.12-.55,1.31-.36,1.48-.75.18-.43-.63-.01-.16-.86.73-1.32,1.64-2.64,2.4-4.1.06-.11.3-.13.32-.19.13-.26-.02-1.39.04-1.44.05-.04.37.1.57-.12s.55-1.36.73-1.74c.27-.6,1.58-3.02,1.63-3.29.04-.18-.1-.89-.15-1.16h.19c.14.59.3,1.23.74,1.67Z"/>
    <path class="cls-12" d="M46.25,49.11c-1.92,2.95-2.67,6.6-4.45,9.65-1.1.38-.91-.18-1.39-.19-.05,0-.09.57-.85.29-.35-.13-.29-.3-.43-.41-.24-.18-.54.15-.39-.43l-.47.18.37.46c-.43.37-.52-.54-.93-.65-.25.49.37.58.38.67.03.44-.36.82.18,1.37-.46.14-1.17-.29-1.55-.17-.33.11-.89,1.33-1.23,1.08-.04-.03.02-.26-.04-.31s-.52.27-.71-.15c-.12-.25.75-.64.79-.96,1.17.15.5-.81.69-.98.07-.06.6.1.73-.02.06-.06-.03-.37.05-.49.1-.15.47-.12.65-.29.26-.23.3-.77.49-1s.67-.41.91-.61c.1-.09.49-.51.14-.56.31-.33.62-.77.93-1.11.38-.29.77-.6,1.11-.93.19-.19.37-.38.56-.56l.74-.74c.2-.18.38-.39.56-.56l.37-.19c.06-.06.12-.13.19-.19.42-.38.75-.77,1.11-1.11.24-.22.44-.45.56-.56.24-.22.59-.52.93-.56ZM41.05,57.84c-.2-.2-.57.17-.37.37s.57-.17.37-.37ZM37.06,59.13v.19c.12-.06.12-.12,0-.19Z"/>
    <path class="cls-5" d="M55.53,52.82c-.28,0-.9-.11-1.16-.2-.11-.04-.29-.66-.65-.12-.13.19-.17,1.7-.75.84-.11-.16-.03-.71-.16-1.04-.12-.29-.56-.13-.43-.5.17-.47,1.08-.55,1.02-1.21.57-.09.48.07.46.56.81-.52,1.18.48,2.04,0,.18.59-.65.28-.74.65-.1.39.82.38.56,1.02-.06,0-.13,0-.19,0Z"/>
    <path class="cls-1" d="M44.58,73.98c0-.21.07-1.13.28-1.12.34.5,1.31.92,1.95,1.12.17.66-.52.21-.72.4-.05.05-.52,1.09-.39,1.27-.24-.07-.39-.37-.56-.56s-.13-.28-.19-.37c0-.44.12-.64-.37-.56-.01-.06,0-.13,0-.19Z"/>
    <path class="cls-5" d="M51.82,54.49c-.45-.08-.64-1.56-.55-1.66.41-.16,1.27-.27,1.43.21.07.22-.47.85-.14,1.08-.18.31-.5.27-.74.37Z"/>
    <path class="cls-6" d="M13.4,80.29v.19c-3.22,0-6.44,0-9.65,0,0-.12,0-.25,0-.37.31.21.66.18,1.01.19,2.87.09,5.77,0,8.64,0Z"/>
    <path class="cls-17" d="M20.45,80.48c-2.34.07-4.71,0-7.05,0v-.19c2.01,0,4.03-.03,6.03,0,.31,0,.83-.12,1.02.19Z"/>
    <path class="cls-16" d="M42.72,70.46c.73-1.14,1.11,1.01.74,1.48-.24-.49-.5-.99-.74-1.48Z"/>
    <path class="cls-16" d="M44.58,74.17c.5-.09.38.12.37.56-.07-.12-.28-.04-.37-.56Z"/>
    <path class="cls-12" d="M40.68,59.69c-.22.21-.6-.08-.09-.37.16-.02.1.36.09.37Z"/>
    <path class="cls-12" d="M63.14,54.49h-.18c-.09-.77.27-.77.18,0Z"/>
    <path class="cls-8" d="M67.78,53.01c-.05.17-.21.19-.37.19v-.19h.19c.06,0,.12,0,.19,0Z"/>
    <path class="cls-12" d="M6.71,60.81c.13.06-.11.32-.37.18-.13-.06.11-.32.37-.18Z"/>
    <path class="cls-12" d="M41.52,59.51c.12.06.12.12,0,.19v-.19Z"/>
    <path class="cls-12" d="M41.33,60.25c.12.06.12.12,0,.19v-.19Z"/>
    <path class="cls-12" d="M65.46,52.82c.12.06.12.12,0,.19v-.19Z"/>
    <path class="cls-12" d="M67.41,52.82c-.07-.05-.16-.11-.19-.19.09.03.16.1.19.19Z"/>
    <path class="cls-4" d="M68.34,13.1c-.52-.39-.61-.02-.86.35-.76,1.09-1.64,2.77-2.34,3.97-2.5,4.25-4.74,8.68-7.19,12.94-.13.23-.88.89-1.11,1.3-.95-1.32-.73.04-.93.19-.1.08-.68-.28-.92-.19-.3.28,1.09,1.04,1.3,1.11-.64,1.09-1.24,1.95-1.67,3.16-.37.16-.51.55-.56.93-.11.02-.25.15-.37.19,0-.44-.24-.85-.19-1.3,1.1.12.71-.02,1-.48.09-.15.64-.66.3-1.01-.46-.47-1.08.74-1.36.72-1.21-.1-.97-1.37-1.06-1.46-.11-.12-.85.26-.93.19-.1-.1-.49-2.01-1.5-.66-.87,1.16.96.18,1.31.66.27.37-1.29.86-.74,1.67.82-.68,1.26-.43,1.48.56-.41-.15-2.27-.35-2.42-.45-.43-.29.19-1.55-.64-1.22-.16.06-.65,2.09-1.48,1.86-.5-.14-.06-1.73-1.21-1.3-.14-.12.48-1.28.61-1.43.46-.48,1.27-.19,1.06-.98-1.77-.18-1.16.16-1.59,1.11-.52,1.16-1.88-.05-2.13.19l-.47,1.86-.28-.93c-.58-.08-.49.72-1.02.76-.38.03-.56-.3-.78-.35-.29-.06-.57.18-.85.12-.24-.05-.89-1.05-1.24-.25-.09.2.98.73,0,.93s-.93-.48-1.03-.48c-.37-.02-.55.29-.76.32-.39.05-1.07-.11-1.54.06-.19-.96.5-.22.56-.83.06-.66-.65-.03-.89.04s-.76.02-.78.05c-.12.11.61,1.08-.5,1.26-.26.04-.94-.67-1.45-.71s-.16.43-.29.54c-.64.54-1.5-1.05-1.84-.72.14.56.65,1.04.28,1.67-.18,0-.91-.35-1.02-.47-.19-.2-.15-.57-.21-.62-.13-.11-.55.02-.78-.02-.11-.02-.2-.74-.49-.38-.49.63,1.44,1.47,1.6,1.68.14.19-.11.34-.11.36-.97-.38-2-.94-2.91-1.45-2.55-1.44-5.29-3.27-7.88-4.56-.18-.09-1.48-.66-1.57-.68-.37-.06-.2.51-.64.38.09-.21.05-.47.24-.69.41-.47,2.25-1.52,2.9-2.02,4.45-3.42,8.99-6.7,13.39-10.18,4.93-1.06,9.93-1.73,14.83-2.89,1.52-.02,2.98-.47,4.45-.74,4.67-.87,9.36-1.66,14.03-2.61.94-.03.81.39,1.19.94ZM53.49,33.15c-.29-.29-.85.26-.55.55s.85-.26.55-.55ZM39.01,34.63c-.2-.2-.57.17-.37.37s.57-.17.37-.37Z"/>
    <path class="cls-4" d="M112.88,8.09c.82.39,1.62,1.04,2.41,1.48-2.52.98-5.12,1.75-7.67,2.64-.24.08-.42.31-.5.33-.72.25-1.61.47-2.41.74-.31.11-.62.27-.93.37-.06.02-.13-.02-.19,0-.15.05-.27.15-.37.19-.69.24-1.44.47-2.23.74-.16.05-.28.15-.37.19-6.3,2.17-12.65,4.18-18.94,6.41-.3.1-.66-.04-.55.46-1.62-1.87-3.39-3.68-5.01-5.57-1.1-1.28-2.16-2.61-3.24-3.91-.3-.36-.87-.26-.67-.99.07-.26,4.53-.93,5.21-1.04,4.25-.73,8.22-1.53,12.44-2.41.06-.01.13.01.19,0,.28-.06.53-.14.74-.19.68-.14,3.88-.91,4.23-.7.03.02.28.37.41.51.06.07.13.12.19.19.51.59,1.04,1.42,1.58,2.04.6.7,1.25,1.43,1.95,2.04-.55-2.7-1.15-5.4-1.64-8.11-.04-.25-.04-.33.24-.24,1.67.53,3.82,2.26,5.51,2.84,3.08,1.05,6.46.48,9.62,1.98Z"/>
    <path class="cls-2" d="M68.34,13.1c.43.6.54.45.91.85,1.01,1.11,2,2.29,2.99,3.42,2.92,3.34,5.69,6.81,8.54,10.21l-.92.1c-.05.25,1.04,1.76.09,1.56-.57-.12-.43-1.47-.75-1.85-.16-.19-.54-.29-.64-.19-.09.09.18.6.14.81-.04.24-.43.34-.32.67,1.07-.18.48.86-.12.9-.22.01-.36-.23-.56-.27-.32-.06-1.04,0-1.32-.48-.19-.32.76-2.28-.32-1.82-.56.24.08,2.06-.93,2.05-.08,0-.8-1.19-.83.18.44.16.67.34.74.93h-.74c0-.31,0-.62,0-.93-.13-.05-.7-.22-.74-.18-.37.34.78.43.37.74-.08.06-.53-.09-.72.03-.2.13,0,.81-.49.72-.35-.06-.55-.43-.91-.58s-1.03-.11-1.23-.26c-.3-.21.07-.86-.64-.66-.06.02-.07.25-.16.31-.19.11-.47.05-.49.07-.08.07.26.66.19.74-.3.35-.37-.34-.51-.37-.18-.04-.49.06-.59-.02-.14-.12.28-.74-.57-.53l.74,1.67c-.44.41-1.61-.25-1.67-.18-.31.35.36.63.37.68.09.41-.16.67-.17.91,0,.04.7.29.35.63s-.75-.29-.56-.74c-.8-.24-.56.41-1.11.37.43-1.76-1.39-1.31-2.6-1.11.45-.93-.09-1.16-.93-1.48-.17.64.13.6.25.75.38.48-.09.27-.36.43-.08.05-.08.3-.18.3-.19.01-.86-.34-1-.19-.06.07.16,1.29-.52,1.67-.56.31-.73-.11-.97.93-.27-1.11-1.26-2.34-1.48-3.53,2.44-4.26,4.69-8.69,7.19-12.94.71-1.2,1.59-2.88,2.34-3.97.25-.36.34-.74.86-.35Z"/>
    <path class="cls-6" d="M30.29,37.6c.06.33,2.43,1.36,2.91,1.63,1.7.96,3.37,2.08,5.07,3.01-.69,1.42-.72.39-.85.37-.11-.01-1.54.15-1.61.18-.17.07-.33,1.1-.69.74-.1-.1.81-1.32-1.3-.74-.03-.65.88-.78,1.3-.56.04-.21,0-.35-.18-.46-.45-.28-2.48-.27-3.15-.65l.19,1.11.92-.37c.35,1.38-.98.41-1.11.56-.35.4.67.68.37.93-.06.05-.46-.07-.54.01-.1.11.04,2.01-1.13,1.01-.13-.33.35-.27.37-.37.07-.26-.77-1.57-1.12-1.21-.27.28.56,1.26.37,1.48-.35.41-.3-.52-.65-.37-.22.1-.43.63-.74.56-.24-.06-.2-.81-.64-.54-.52.32-.33,1.41-.38,1.47-.07.07-1.66-.09-2.04.19.16-1-1.15-.63-.93-1.39.01-.05,1.04-.55,0-.65,0,.8-.26.8-.93.56-.03.55.63.48.73,1.04.06.36-.35.21-.37.37-.03.21.28.74.2.81-.11.1-1.31-.31-1.67,0-.22-.47,1.19-.84.74-1.3-.36-.37-.69.47-.85.52-.06.02-.98.03-1.19.04-.01-.36.5-.9-.37-.93v.93c.12,0,.25,0,.37,0,.02.45.14.87.09,1.3-.65-.48-1.4-.24-2-.41-.74-.21-.77-2.04-1.69.06-.24.54-.01.97-.69,1.36-.2.11-.47.05-.68.16-.03.02-.11.64-.42.31-.04-.05.09-.88-.74-.74.65.97-.87,1.23-.89.5,0-.15.25-.57.15-.69-.02-.02-.44-.18-.47-.18-.11,0-.2.4-.34.5-.12.09-.42.02-.47.07-.14.14.05.84-.03.91-.06.06-.68-.07-.75,0-.04.04,0,.8-.08,1.13-.15.54-.5,1.02-.66,1.47.77-3.63,1.96-7.19,2.97-10.77l.69-1.63.24-1.71c.05-.19.17-.31.19-.37l.19-.27-.19-.1c.07-.25.12-.5.19-.74.42.07.53-.08.19-.37.03-.11-.03-.27,0-.37.57.17.46-.99.56-1.48.01-.06-.01-.13,0-.19.21-.13.42-.39.19-.56.03-.11-.03-.26,0-.37.43.06.51-.06.19-.37.07-.24.05-.42.19-.74.44.13.27-.44.64-.38.08.01,1.38.59,1.57.68,2.58,1.29,5.32,3.12,7.88,4.56.91.51,1.94,1.07,2.91,1.45ZM27.5,42.99c-.2-.2-.57.17-.37.37s.57-.17.37-.37ZM14.14,44.47c-.2-.2-.57.17-.37.37s.57-.17.37-.37ZM14.32,46.51h-.37v.55h.37v-.55ZM17.11,46.51h-.74c-.1.58.14,1.19.74.84v-.84ZM15.72,47.26v.19c.12-.06.12-.12,0-.19ZM12.93,48v.19c.12-.06.12-.12,0-.19Z"/>
    <path class="cls-17" d="M21.38,45.58c.21,0,1.13-.02,1.19-.04.16-.04.48-.89.85-.52.45.45-.96.82-.74,1.3.36-.31,1.56.1,1.67,0,.08-.07-.23-.6-.2-.81.02-.16.43-.01.37-.37-.09-.57-.76-.49-.73-1.04.67.25.92.24.93-.56,1.03.1,0,.6,0,.65-.21.77,1.09.39.93,1.39.38-.28,1.97-.11,2.04-.19.05-.06-.14-1.15.38-1.47.44-.27.4.48.64.54.31.08.52-.46.74-.56.35-.15.3.78.65.37.19-.23-.64-1.2-.37-1.48.35-.37,1.19.95,1.12,1.21-.02.09-.51.03-.37.37,1.17,1.01,1.03-.89,1.13-1.01.08-.08.48.03.54-.01.3-.25-.72-.53-.37-.93.13-.15,1.46.82,1.11-.56l-.92.37-.19-1.11c.67.38,2.7.37,3.15.65.19.12.22.26.18.46-.42-.22-1.33-.09-1.3.56,2.11-.58,1.2.65,1.3.74.36.35.52-.67.69-.74.07-.03,1.51-.19,1.61-.18.13.01.17,1.05.85-.37.08.04.3-.04.37,0,.16.09.33.25.56.37.38.21.77.37,1.11.56,1.47.79,2.62,1.75,4.27,2.23.1.47.55.43.74.56.69.46,1.45.9,2.04,1.48-.36.54-.75,1.11-1.11,1.67-.34.04-.69.33-.93.56.77-.91.17-.6-.08-.94-.13-.17-.07-.5-.11-.54-.07-.07-.88.13-.92.18-.28.3.67.5.56,1.01-.13.59-1.3-.06-1.48.1.39,2.03-.49.33-1.48,1.03-.4.28-.71,1.97-1.08.87-.16-.47.22-.72-.59-.61.06.76.05,1.22-.84,1.13-.22-.02-.71-.83-.62-1,.21-.61,1.09-.67,1.1-.79.09-.93-.78-1.77-1.62-.94-.89.89-.11.85-.07.98.33,1.09-.76.19-1.48.62l.18-.93c-.38-.11-1.41.35-1.55.34-.29-.02-1.52-.99-1.92-1.06-.29-.04-.46.39-.75.49-.25.09-.7-.01-.79.04-.04.02-.11.76-.56.37-.49-.42.52-.34.56-.37.05-.04.25-1.08.37-1.3-1.38-.2-.7.29-1.01.75-.68.32-.63.51-1.4.55-.14.39-.09.54-.74.56-.11-.78.13-.53.74-.56.32-.91.13-.61-.12-1-.12-.19,0-.45-.16-.49-.72-.16-.33.35-.55.74-.15.27-.53.29-.61.42-.1.16.01.47-.1.64-.22.34-1.03.85-1.43.52.11-.79.42-1.42.74-2.13-.27.09-1.36.14-1.45.22-.08.07-.05.45-.2.63-.17.21-.45.18-.61.28-.15.1-.17.35-.27.36-.62.07-1.35-.62-2.11.27-.29.35-.35,1.41-.85.5-.17-.31-.21-1.09-.53-.96-.82.35.85,1.7,0,2.04-.54.21-.45-.4-.78-.52-.51-.19-.74.3-.62-.78-1.12.05-1.37.24-.92,1.35.07.18.33.09.36.23.06.26-.61.78-.93.65-.19-.48.35-.34.37-.46.01-.06-.35-.95-.39-.99-.13-.11-.55.03-.78-.03-.15-.04-.12-.37-.24-.38-.43-.05-1.27.35-.58.62.32.12.98-.16,1.06.23.06.28-1.21,1.23.09.83.44.53-.37.3-.44.38-.11.12.13,1.31-.43.49-.5-.73-.61-.5-.84-.74-.1-.1.03-.39-.17-.5-.84-.49-1.31.61-1.55.38-.08-1.36-.82-.02-.37.74-.36.11-.51-.4-.8-.35-.16.03-.31.33-.58.36-.03,0-.46-.46-.46-.5,0-.13.23-.4.18-.44-.04-.03-.71-.19-.93-.37.01-.14-.01-.36-.19-.37.02-.07.17-.13.19-.19.16-.45.51-.93.66-1.47.09-.32.04-1.09.08-1.13.06-.06.68.07.75,0,.07-.07-.11-.77.03-.91.05-.05.34.03.47-.07.14-.11.23-.5.34-.5.02,0,.45.16.47.18.1.12-.16.54-.15.69.02.73,1.54.47.89-.5.83-.14.7.7.74.74.31.33.39-.3.42-.31.21-.11.48-.05.68-.16.67-.39.45-.82.69-1.36.91-2.1.95-.27,1.69-.06.61.17,1.35-.07,2,.41.05-.43-.08-.85-.09-1.3-.12,0-.25,0-.37,0v-.93c.87.03.36.56.37.93ZM28.06,48.74c-.2-.2-.57.17-.37.37s.57-.17.37-.37ZM40.31,49.11c-.2-.2-.57.17-.37.37s.57-.17.37-.37ZM27.97,49.3v.19c.12-.06.12-.12,0-.19Z"/>
    <path class="cls-1" d="M72.23,17.37c.36-.1-.08-.66,0-.74.14-.13.83.28.93.18.05-.05-.4-1.13.46-1.25.59-.08.79,1.01.84,1.07.03.04.84-.31.92-.47.21-.4-.46-.15-.37-.46l1.11.37c1.62,1.89,3.39,3.7,5.01,5.57.85.98,1.7,2.13,2.6,3.16.13.15.28.26.37.37.43.5.86.99,1.3,1.48.58.66,1.07,1.09,1.48,1.86.09.17.17.31.37.37.26.39.39.47.74.74l1.3,1.48c.02.06-.02.13,0,.19.04.13.8.77.93.93,1.16,1.44,2.36,2.84,3.53,4.27-.77.61-1.53,1.27-2.32,1.86-.28.21-.41.45-.84.37-.03-.09-1.16-1.02-1.39-1.3-1.5-1.76-3.01-3.49-4.54-5.2-.06-.07-.13-.12-.19-.19-.14-.16-.11-.81-.74-.74-.3-1.18-1.52-1.93-2.23-2.78-.03-.04-.05-.21-.19-.37-.2-.25-.43-.4-.56-.56-2.85-3.39-5.62-6.87-8.54-10.21Z"/>
    <path class="cls-2" d="M11.73,51.9c-.22,2.05-1.49,4.67-1.86,6.87,0,.03-.14.07-.13.22,0,.07.12.1.13.15.03.11-.04.34,0,.37-.03-.03-.3-.06-.37-.19.72-2.57,1.16-5.27,2.04-7.8.18.01.2.23.19.37Z"/>
    <path class="cls-14" d="M53.12,14.77c-1.48.27-2.93.72-4.45.74.08-.02.29-.22.54-.29.73-.18,3.26-.43,3.61-.63.26-.15.08-.53.12-.75l.18.93Z"/>
    <path class="cls-4" d="M15.62,37.23l-.24,1.71-.69,1.63c.31-1.11.61-2.23.93-3.34Z"/>
    <path class="cls-1" d="M68.15,11.8c-.26.21-1.15-.53-.93-.74.12-.12,1.06.3.93.74Z"/>
    <path class="cls-1" d="M66.29,11.06c.16.16-.45,1.07-.55.93-.18-.34.26-1.23.55-.93Z"/>
    <path class="cls-10" d="M93.21,4.01v.83s.56-.09.56-.09c.11.23-.79.22-.37.55.39.31.74-.69,1.11-.37.04.04.1,1.36.56.93.09-.09.03-.78.37-.74.02.81.66,1.63.19,2.41-.06-.07-.13-.12-.19-.19-.07-.59-.77-.69-.37-1.3-.46-.19-.51.58-.65.55-.39-.08-.37-.51-.65-.55l.09.56c-.1.06-1.77.54-1.86.55-.12,0,.21-.54-.86-.12-.11.04-.72.36-.33.5-.21.04-.46.13-.74.19-.39-.5-.95.06-.19,0-4.21.88-8.18,1.68-12.44,2.41l-.09-.18,1.39-.19c-.23-.32-.23-.91-.4-1.18-.2-.33-.48-.25-.7-.42-.34-.25.02-.76-.85-.08.15-.56-.47-.34-.46-.92,4.75-.9,9.5-1.83,14.25-2.74.15-.06.21.14.23.15l.19.19h.19c-.09.77.13.42.48.63.08.05.08.24.2.28.91.28,1.12-.66,1.17-1.47-.27.23-.46,0-.56,0,.14-.3.52-.14.74-.19ZM93.67,5.49v.19c.12-.06.12-.12,0-.19ZM92.93,6.05v.19c.12-.06.12-.12,0-.19ZM90.24,7.17c-.26-.13-.5.12-.37.18.26.13.5-.12.37-.18Z"/>
    <path class="cls-4" d="M16.74,33.52c-.09.49.02,1.65-.56,1.48.14-.47.33-1.06.56-1.48Z"/>
    <path class="cls-4" d="M17.11,32.04c.33.31.25.43-.19.37.06-.27.18-.35.19-.37Z"/>
    <path class="cls-4" d="M16.18,35.38c.34.29.23.44-.19.37.06-.22.18-.35.19-.37Z"/>
    <path class="cls-1" d="M72.42,15.89c-.06.13-.32-.11-.18-.37.06-.13.32.11.18.37Z"/>
    <path class="cls-1" d="M72.79,15.15c.13.06-.11.32-.37.18-.13-.06.11-.32.37-.18Z"/>
    <path class="cls-4" d="M16.74,33.33c.04-.22.15-.4.19-.56.24.17.02.42-.19.56Z"/>
    <path class="cls-4" d="M15.81,36.86c.03-.11-.03-.27,0-.37l.19.1-.19.27Z"/>
    <path class="cls-10" d="M6.62,59.69c.12.06.12.12,0,.19v-.19Z"/>
    <path class="cls-1" d="M66.76,11.25c.12.06.12.12,0,.19v-.19Z"/>
    <path class="cls-8" d="M68.71,55.05c-.09-.82.86-.03,1.3-.27.27-.15.31-.65.49-.68.33-.05,1.2.35,1.66.37.15,0,1.15-.13,1.19-.17.12-.12-.44-.94.11-1.1.51-.15.78.35,1.1.36.33.01.72-.44,1.09-.38.15.02.33.63.48.8.18.21.57.31.67.51.14.27-.36.92.17.74,1.33-.45.54-.86.84-2.04-.61-.12-.14.47-.83.37-.16-.02-.13-.37-.09-.46.2-.48,1.28-.08,1.67-.1v-.93c.67-.16.21.59.45.94.16.23,1.11.14,1.47.53.21.22.1.54.12.57.07.07.88-.1.93-.28.2-.65-.88-.57-.75-1.2.3,0,.6-.06.84.18s.17,1.12.55.93c.41-.21.37-1.14.5-1.26.11-.1,1.01-.16,1.26-.22.15.68-.54.16-.76.48-.09.13-.28.87-.07,1.01,1.09-.8,1.96.05,2.69-1.12.05.96-1.19,3.89-1.48,5.2-.01.06.01.13,0,.19-.27.24-.31.6-.37.93-.01.06.01.13,0,.19l-.18.28.18.09c-.66,2.55-1.94,4.99-2.41,7.61-.17.3-.13.44-.19.56-.05.11-.12.21-.19.37-.84,2.06-1.3,4.28-2.23,6.31.01-.6.28-1.08,0-1.67-2.06.72-1.4-.99-1.69-1.28-.07-.07-.4.04-.49-.05-.08-.08-.05-.47-.15-.69-2.45-5.32-5.41-10.29-7.87-15.61ZM78.17,71.2h-.56c.05.4.12.88.55.74v-.74Z"/>
    <path class="cls-5" d="M97.29,61.18s.34-.04.54.11c.15.1.15.4.33.45.51.14,1.36-.19,1.47-.73.08-.42-.16-.79-.1-1.01.06-.2.94-.45.54-1.41-1.01.41-.43-.07-.18-.55.39.26.13.69.55,0,1.85,5.72,3.83,11.42,5.76,17.12l6.31,5.34h-9c-2.18-2.85-4.51-5.58-6.77-8.35-1.64-2.01-3.23-4.13-4.83-6.13.81.46,1.72-.57,1.76.56.17,0-.11-.82.65-.56-.18-1.41-1.88.26-2.33-.36-.09-.13-.14-.49-.08-.56.33-.43.33.48.55.37-.07-1.07-.5-1.73,1.01-1.47,1.41.24.86.84,1.22,1.55.33.65.86-.98.92-1.05s.8-.85.94-.69c.07.36-.33.78-.37,1.03-.01.07.66,0,.18.64,1-.14,1.32.46,1.31,1.38,0,.15-.58-.01-.38.47,2.05-.49.52-1.74.54-2.51s1.24-1.78-.91-1.76c.07-.67.56-1.11.37-1.86-.31-.08-.12.26-.22.32-.23.14-.62.02-.89.05-.08-.39.18-.43.45-.57.89-.45.61.16.66.2ZM100.45,61.18c-1.12.27-.28.57-.25.61.15.32.02.95.63.87.26-.8-.41-.86-.37-1.48ZM99.33,62.29c-.38-.38-.52.61-.29.94.17.23.73.12.94.36-.13-.55.27-.32.46-.74-1.4.52-.79-.24-1.12-.56ZM97.48,67.49c-.2-.2-.57.17-.37.37s.57-.17.37-.37Z"/>
    <path class="cls-16" d="M90.05,55.98l.56.37c-.94.27-.62,1.68.56,1.3-.03-.19.06-.64-.02-.73-.1-.11-.6.16-.54-.2l.93-.19c.07-.27-.7-.34-.55-.55,0-.01.22.04.3-.07.25-.37.6-1.28,1-.49l-.56.37c.53-.15.52.25.77.44.14.11.4.08.49.17.11.11-.07.71.31.5.29-.15.48-.96.46-1.3l-.55.74-.19-1.48h1.3c.04-.37-.46-.01-.37-.37.64.08.15-.26.19-.74.39.08,1.01.19,1.39.14.12-.02,0-.48.46-.14.23-.46-.37-.32-.38-.48-.03-.28.25-.64.22-.88-.02-.13-.88-.35-.57-1.05.31-.08.11.33.27.38.61.17.3-.32.65-.38-.18.98,1.5,2.64,1.49.85,0-.06-.64-.18-.38-.66.31-.08.11.25.21.33.2.16.68-.01.9-.14.07.23.3.52.37.74.58,1.84,1.08,3.73,1.67,5.57-.42.7-.16.26-.55,0-.25.49-.83.96.18.55.4.96-.49,1.22-.54,1.41-.06.22.18.59.1,1.01-.11.55-.95.87-1.47.73-.18-.05-.18-.35-.33-.45-.21-.15-.5-.08-.54-.11-.05-.04.23-.65-.66-.2-.27.14-.53.17-.45.57.28-.03.66.09.89-.05.1-.06-.09-.4.22-.32.19.75-.31,1.18-.37,1.86,2.15-.02.93.98.91,1.76s1.51,2.02-.54,2.51c-.2-.49.38-.32.38-.47.01-.92-.31-1.52-1.31-1.38.47-.63-.2-.57-.18-.64.04-.24.44-.67.37-1.03-.14-.17-.88.61-.94.69s-.59,1.7-.92,1.05c-.36-.71.19-1.31-1.22-1.55-1.51-.26-1.08.4-1.01,1.47-.23.11-.22-.8-.55-.37-.06.08,0,.43.08.56.45.63,2.15-1.04,2.33.36-.76-.26-.48.56-.65.56-.04-1.13-.95-.1-1.76-.56-.12-.15-.46-.31-.65-.55-1.21-1.53-2.47-3.05-3.43-4.75-.05-.48,1.86-3.98,2.23-4.72ZM96.27,52.64v.19c.12-.06.12-.12,0-.19ZM94.6,63.4v.19c.12-.06.12-.12,0-.19Z"/>
    <path class="cls-1" d="M98.41,51.71c-.22.13-.7.31-.9.14-.1-.08.09-.41-.21-.33-.26.48.38.6.38.66,0,1.8-1.68.14-1.49-.85-.35.06-.03.55-.65.38-.16-.05.03-.46-.27-.38-.31.7.55.92.57,1.05.04.24-.25.61-.22.88.02.16.62.02.38.48-.45-.33-.34.12-.46.14-.38.05-1-.06-1.39-.14-.04.48.46.82-.19.74-.09.36.41,0,.37.37h-1.3s.19,1.49.19,1.49l.55-.74c.02.34-.17,1.15-.46,1.3-.39.2-.21-.39-.31-.5-.09-.09-.35-.06-.49-.17-.25-.19-.23-.59-.77-.44l.56-.37c-.4-.79-.75.12-1,.49-.08.12-.29.06-.3.07-.15.22.63.28.55.55l-.93.19c-.06.36.43.09.54.2.08.08-.01.53.02.73-1.18.37-1.5-1.03-.56-1.3l-.56-.37c1.61-3.29,3.25-6.57,4.94-9.82.27-.52.38-.86,1-.58.21-.49-.38-.32-.38-.46,0-.29.47-.62.38-1.02l1.06,2.93c.5,1.54.86,3.14,1.35,4.68ZM94.08,52.77c.25-.34.35-1.54-.13-1.8.19,1.68-.38.23-.93,1.11.7.49.89-.08.56.93.02.02.47-.19.5-.24ZM92.65,54.12c-.26-.13-.5.12-.37.18.26.13.5-.12.37-.18ZM92.09,54.49h-.55v.37h.55v-.37ZM92.56,54.68v.19c.12-.06.12-.12,0-.19Z"/>
    <path class="cls-12" d="M93.02,40.57c-.14.23.02.69-.01.81-.05.15-.35.11-.36.23-.01.19.45.83,0,.82.26-.59-.66-.66-.56-1.02.08-.29.83-.05.37-.84h.55Z"/>
    <path class="cls-12" d="M90.98,41.69l-.28,1.29c.36-.93-.57-.35-.65-1.01l.93-.28Z"/>
    <path class="cls-12" d="M91.54,42.62l-.09.74c-.29-.2-.32-.4-.28-.74h.37Z"/>
    <path class="cls-12" d="M91.35,43.92c.2.2-.17.57-.37.37s.17-.57.37-.37Z"/>
    <path class="cls-12" d="M98.96,51.15h-.18c-.09-.77.27-.77.18,0Z"/>
    <path class="cls-17" d="M83.93,58.95c.06-.33.1-.69.37-.93-.07.34.02.71-.37.93Z"/>
    <path class="cls-12" d="M98.4,50.22c-.06.13-.32-.11-.18-.37.06-.13.32.11.18.37Z"/>
    <path class="cls-17" d="M83.93,59.51l-.18-.09.18-.28c-.03.11.03.27,0,.37Z"/>
    <path class="cls-12" d="M101.1,50.78c.12.06.12.12,0,.19v-.19Z"/>
    <path class="cls-12" d="M95.34,71.57c.12.06.12.12,0,.19v-.19Z"/>
    <path class="cls-12" d="M100.91,50.41c.12.06.12.12,0,.19v-.19Z"/>
    <path class="cls-12" d="M91.07,44.47c.12.06.12.12,0,.19v-.19Z"/>
    <path class="cls-12" d="M90.52,44.29c.12.06.12.12,0,.19v-.19Z"/>
    <path class="cls-12" d="M92.37,42.43c.12.06.12.12,0,.19v-.19Z"/>
    <path class="cls-15" d="M67.97,53.57c.06,1.13.5.97.74,1.48,2.46,5.32,5.42,10.29,7.87,15.61.1.22.07.61.15.69.09.08.42-.02.49.05.3.29-.36,2,1.69,1.28.29.59.02,1.07,0,1.67,0,.06,0,.12,0,.19l-.13.08.13.11c.06,1.12.5.87,1.3,1.58,1.55,1.36,3.07,2.75,4.64,4.09-.89.02-1.81.26-2.69.29-.5.02-.95-.21-1.39-.2l-.19.19c-.12,0-.25,0-.37,0l-.19-.19c-.58.01-1.06.19-1.57.19-2.62.03-5.26-.02-7.88-.03-.51-2.61-.96-5.24-1.32-7.87-.68-5.07-1.57-11.12-1.86-16.15-.03-.57-.12-2.47,0-2.88,0-.01.17-.18.19-.19.06-.04.26.02.37,0Z"/>
    <path class="cls-3" d="M78.92,46.51s-.08-.32.12-.37c.41-.11,1.24-.04,1.45.38.24.48-.2.89.65.74-.25-.62.36-.72.39-1.01.05-.5-.12-.93-.2-1.4.58.31,1.63-.06,2.11.05.55.13.28.38,1.49.5.13.01.1.37.22.38.16.01.71-.32.82-.2.02.03-.04.46.1.74.3.56,1.12.8,1.18-.07.05-.73-.53-.97-.54-1.59,1.76-.11.83.13.95.64.07.32.96.01.24,1.21-.09.15-.44.15-.45.3s.21.37.15.68c-.22,1.12-.87,2.73-1.26,3.85-.6,0-.93.43-.94,1.01,0,.19.32.07.38.1.01,0,0,.12,0,.19-.73,1.17-1.6.31-2.69,1.12-.21-.14-.03-.88.07-1.01.23-.32.91.2.76-.48-.25.06-1.15.12-1.26.22-.14.12-.1,1.06-.5,1.26-.38.19-.31-.68-.55-.93s-.54-.19-.84-.18c-.14.64.94.56.75,1.2-.05.18-.86.34-.93.28-.03-.03.08-.35-.12-.57-.36-.39-1.31-.31-1.47-.53-.24-.35.22-1.1-.45-.94v.93c-.39.02-1.47-.39-1.67.1-.04.09-.07.44.09.46.7.1.23-.5.83-.37-.29,1.17.49,1.59-.84,2.04-.53.18-.03-.47-.17-.74-.1-.19-.49-.3-.67-.51-.15-.17-.33-.78-.48-.8-.37-.06-.76.39-1.09.38s-.58-.51-1.1-.36c-.55.16,0,.99-.11,1.1-.04.04-1.04.17-1.19.17-.46-.02-1.33-.42-1.66-.37-.18.03-.22.53-.49.68-.44.24-1.39-.56-1.3.27-.24-.52-.68-.35-.74-1.48,0-.06,0-.12,0-.19.4,0,.65.14.56-.37-.18-.02-.38.02-.56,0-.06,0-.13,0-.19,0s-.12,0-.19,0c-.08-.61-1.88-4.27-1.67-4.45.61-.51,1.1,1.02,1.48.74.09-.06.08-1.1.8-.91s.24,1.02.31,1.09c.94.13.38-.26.37-.93.31-.06,1.57.08,1.67,0,.36-.31-.37-.41-.38-.46-.15-1.01.76-.4,1.18-.46.07-.01.42-.74.86-.56.09.51.28,1.06.93.93.15-.5-.26-.28-.36-.51s-.12-.69-.2-.97c.17-.18,1.68,1.46,1.93,1.48.11,0,.98-.17,1.1-.22.29-.13.28-.47.54-.58.12-.05,1.43-.31,1.52-.31.11,0,.1.33.23.37.95.28.46-.45.66-.7.08-.1.31-.01.33-.04-.2.2.16.58.37.37s-.17-.57-.37-.37ZM82.8,46.13c.33-.22.2-1.17-.54-.91-.08.49-.06,1.31.54.91ZM83.93,45.59c-.2-.2-.57.17-.37.37s.57-.17.37-.37ZM84.48,46.51h-.55v.37h.55v-.37ZM82.81,46.88h-.93v.37h.93v-.37ZM86.88,47.65s-.66-.27-.72-.2v.74c.48.1,1.05,0,.72-.54ZM72.23,48.56c-.2-.2-.57.17-.37.37s.57-.17.37-.37ZM79.47,48.74c-.18-.2-.75.38-.55.55.31.28.84-.24.55-.55ZM82.07,48.74c-.2-.2-.57.17-.37.37s.57-.17.37-.37ZM71.31,48.93h-.55v.37h.55v-.37ZM70.38,49.11c-.31-.28-.84.24-.55.55.18.2.75-.38.55-.55ZM84.67,49.3s-.93-.17-1.11-.19c.03.61,1.65.69,1.11.19ZM68.89,50.04c-1.02-.02,0,1.27.37.93.26-.24-.68-.58-.37-.93ZM85.04,50.41c-.2-.2-.57.17-.37.37s.57-.17.37-.37ZM83.74,50.78c-.2-.2-.57.17-.37.37s.57-.17.37-.37ZM71.03,51.34v.19c.12-.06.12-.12,0-.19ZM70.7,51.58c-1.02-.38-.56.43-.88,1.14.64-.1.78.47.84.47.95.01.59-1.41.04-1.62ZM80.03,51.53c-.2-.2-.57.17-.37.37s.57-.17.37-.37ZM74.28,51.9c-.2-.2-.57.17-.37.37s.57-.17.37-.37ZM69.08,52.08c-.2-.2-.57.17-.37.37s.57-.17.37-.37Z"/>
    <path class="cls-10" d="M83.56,68.04c.17.16-.4.87-.74.74-.1-.42.41-1.04.74-.74Z"/>
    <path class="cls-10" d="M82.63,67.49c.06.06.25.98-.18.93,0-.28-.33-1.43.18-.93Z"/>
    <path class="cls-8" d="M67.97,53.01c.18.02.37-.02.56,0,.1.51-.16.37-.56.37,0-.12,0-.25,0-.37Z"/>
    <path class="cls-10" d="M81.33,67.67v.56s-.19-.19-.19-.19c.07-.16.13-.26.19-.37Z"/>
    <path class="cls-14" d="M85.97,83.08c-.06.13-.32-.11-.18-.37.06-.13.32.11.18.37Z"/>
    <path class="cls-8" d="M67.41,53.75l.19-.19s-.18.17-.19.19Z"/>
    <path class="cls-10" d="M83.65,67.49c.12.06.12.12,0,.19v-.19Z"/>
    <path class="cls-8" d="M78.92,74.73l-.13-.11.13-.08c0,.06,0,.12,0,.19Z"/>
    <path class="cls-5" d="M80.22,80.66c-.12,0-.17-.19-.19-.19l.19.19Z"/>
    <path class="cls-5" d="M80.59,80.66l.19-.19s-.06.18-.19.19Z"/>
    <path class="cls-14" d="M82.54,82.52c.12.06.12.12,0,.19v-.19Z"/>
    <path class="cls-14" d="M88.1,82.89c.12.06.12.12,0,.19v-.19Z"/>
    <path class="cls-10" d="M101.19,38.35c-.94,1.03-1.85,2.14-2.75,3.21,1.16,3.22,2.12,6.51,3.12,9.78-.46-.03-.35.35-.37.37-.48.28-.27-.36-.49-.57-.09-.08-.93-.41-1-.36-.37.3.39.41.37.46-.29.77-.15.88-.93.65l-.37.56c-.07-.23-.3-.52-.37-.74-.49-1.54-.85-3.14-1.35-4.68l-1.06-2.93c.09.4-.38.73-.38,1.02,0,.15.59-.02.38.46-.62-.28-.73.05-1,.58-1.69,3.24-3.33,6.53-4.94,9.82-.36.74-2.27,4.25-2.23,4.72.96,1.7,2.22,3.22,3.43,4.75.19.24.54.41.65.55,1.59,1.99,3.18,4.12,4.83,6.13-.08.27-.78.69-.93.56.12-.28-.32-1-.56-.74-.19.21.57.89-.19.74-.09-.38.29-1.26-.37-1.11-.13.28.24,1.25.19,1.3-.03.03-1-.06-.56.37.06.06,1.09.07.93.74l-1.3.19c-2.74-3.03-5.55-6.03-8.26-9.09-.24,0-1.17,3.08-1.39,3.52l-.37-1.49c-.08-.08-.66.26-.74.19-.37-.35.75-.39.37-.74-.12-.1-.54.21-.74.19l-.18.36c-.45-1.17-.65-.84-1.12,0,.48-2.62,1.75-5.06,2.41-7.61.03-.11-.03-.26,0-.37.01-.06-.01-.13,0-.19.39-.22.3-.59.37-.93.01-.06-.01-.13,0-.19.37-.5.59-1.29.79-1.9,1.71-5.05,3.73-10.45,5.15-15.55l.74.37v-1.11c.13-.13,1.61.38,1.86.18.42-.34-.63-.31-.37-.74h.93c.15.84-.55.61-.18,1.49l1.11-.93c-.07.19.43,1.47.74,1.11.05-.05-.42-1.25-.46-1.31-.12-.21-.45.04-.46.02-.09-.16.08-1.01,0-1.11-.33-.41-.33.66-.74.37-.24-1,.82-.17.74-.93h.18c-.08.64.26.16.74.18l.02,1.09c.93.35.86-.8,1.38.58l-.09-.93.74.56c-.22-1.01.52-.96,1.3-.74-.02.18.01.38,0,.56.4.21.51-.36.37-.56-.03-.04-.27.03-.37,0,.12-.87.74-.54.84-.73.14-.27-.03-.97.56-.9s.45,1.68,1.39,1.44ZM93.02,40.57h-.55c.45.78-.29.54-.37.84-.1.36.82.43.56,1.02.44,0-.02-.62,0-.82,0-.12.32-.08.36-.23.04-.11-.13-.58.01-.81ZM90.98,41.69l-.93.28c.08.67,1.01.08.65,1.01l.28-1.29ZM92.37,42.43v.19c.12-.06.12-.12,0-.19ZM91.54,42.62h-.37c-.04.34,0,.54.28.74l.09-.74ZM91.35,43.92c-.2-.2-.57.17-.37.37s.57-.17.37-.37ZM90.52,44.29v.19c.12-.06.12-.12,0-.19ZM91.07,44.47v.19c.12-.06.12-.12,0-.19ZM98.4,50.22c.13-.26-.12-.5-.18-.37-.13.26.12.5.18.37ZM100.91,50.41v.19c.12-.06.12-.12,0-.19ZM98.96,51.15c.09-.77-.27-.77-.18,0h.18ZM101.1,50.78v.19c.12-.06.12-.12,0-.19ZM95.34,71.57v.19c.12-.06.12-.12,0-.19Z"/>
    <path class="cls-2" d="M107.13,12.55c.24.28.37.86.38,1.22,0,.71-.65,1.58.36,1.38-.28-.77.63-1.66,1.35-1.46.32.09.53.71,1.06.53-.3-1.25-.06-1.61,1.3-1.48l-.18.74c.94.11.99-.92,2.23-.56.27,1.45-.35.92-.76,1.37-.83.93.2.51.5.5s1.86.23,1.93.17c.03-.03.03-.54.19-.8.19-.31.88-.98,1.11-.41.12.28-.9.45-.08,1l2.49-.17-.47-.93-.28.74c-.14.15-1.02-.4-1.09-.67-.19-.68.49-.49.68-.68.13-.13-.14-.65.41-.51.04.11.41.3.56.37-.12.61.6.42.97.57s-.12.1.51.17c.52.06,1.17.51,1.67.74.4.71.44,1.87.93.56.12.06.25.12.37.19,0,.32,0,.71.18.98.1.16,1.07.86.94.22l-.55-.65c.18,0,.37-.01.56,0,.06,0,.13-.01.19,0,.15.72,1,.94,1.67.93.13.06.25.12.37.19l-.56.65c-.18.48.93.44.93-.28.04.02.61.06.93.19l-.09.37c-.17-.31-.47-.05-.47.28,0,.17.43.09.53.39.09.26.05.87.03,1.19,0,.06,0,.13,0,.19-.56-.12-.35.28-.37.74-.13.24-.03.47-.37.74-.05.04-.33-.05-.37,0-.07.09,0,1.03-.19,1.3-.06.12-.1.23-.19.37-.38.1-.6.31-1.01.38-2.05.34-4.32.09-6.3.18-.13,0-.02.34-.37.38-3.7.49-7.33.46-10.98,1.09-.35.06-.74-.21-.64.37-.32.09-.66.17-.93.37.03-.6.16-.91-.65-.75-.19.04.07.45-.32.63-.54.25-1.34-.3-1.71-.26-.09,0-.12.67-.47.38-.18-.15-.22-1.41-.65-1.3-.35.09.49,1.81-1.02,1.3-.08.55.1.31.42.37.58.11-.37,1.35-1.16.64-.18-.16-.18-.7-.55-.43-.03.02-.03.76-.38.35-.05-.06.06-.49,0-.55-.21-.2-1.23.33-1.57.34-.38,0-.85-.26-1.3-.17-.27.06.23.67-.57.58-.55-.06-.54-1.07-.76-1.13-.55-.15-.98-.04-.81.57-.64-.01-.76-.63-1.67-.37-.18.59.66.29.74.65s-.59.76-.73.98c-.2.32-.07,1.2-.76.7-.47-.34.1-1.31,0-1.4-.51.33-1.73-.21-2.15-.55-.37-.3-.06-.86-.87-.37-.11.07-.12.33-.26.36-.24.05-1.02.06-1.24,0-.16-.04-.11-.33-.14-.35-.42-.3-.41.49-.64.54-.21.04-1.06-.89-1.57.18-.43-.49-.87-.99-1.3-1.48.78-.46.34-1.3-.46-1.11l.09.74c-.9-1.02-1.75-2.18-2.6-3.16-.11-.5.26-.36.55-.46,6.28-2.23,12.64-4.24,18.94-6.41.3.66.84.46.37-.19.79-.27,1.53-.5,2.23-.74l.09.18c.34.06.29-.05.28-.37.06-.02.13.02.19,0,.41.03.33.69.37.74.37.37.63-.76.55-1.11.8-.28,1.69-.49,2.41-.74ZM111.74,14.61c-.04-.05-1.2-.46-1.27-.4-.1.43.45.55.53.87.09.38-.5,1.24.12,1.54s.26-1.1.27-1.18c0-.05.75-.34.35-.84ZM117.52,15.15c-.2-.2-.57.17-.37.37s.57-.17.37-.37ZM105.27,15.33c-.2-.2-.57.17-.37.37s.57-.17.37-.37ZM107.13,16.81c.73,0,.74-.74,0-.74v.74ZM123.09,16.26c-.2-.2-.57.17-.37.37s.57-.17.37-.37ZM115.85,16.82h-.55v.37h.55v-.37ZM103.05,22.2c-.3-.36-.38.35-.49.37-.3.06-.68-.04-.99,0-.17.5.32.28.37.5.08.33-.12.73.28.98.3.15.41-.42.49-.61s.4-1.17.34-1.24ZM95.06,23.5h-.37v.93h.37v-.93ZM85.78,24.8s-.88-.42-.93-.37v.93c.27.06,1.24-.18.93-.55ZM92.84,24.61c-.2-.2-.57.17-.37.37s.57-.17.37-.37ZM92.45,25.56c-.06-.1-.88-.24-1.1-.2-.59.61,1.69,1.16,1.1.2ZM88.2,25.54c-.2-.2-.57.17-.37.37s.57-.17.37-.37ZM92.84,26.47c-.2-.2-.57.17-.37.37s.57-.17.37-.37Z"/>
    <path class="cls-6" d="M85.41,26.65c.51-1.07,1.37-.14,1.57-.18.23-.05.22-.84.64-.54.03.02-.03.31.14.35.22.06,1,.05,1.24,0,.15-.03.15-.29.26-.36.81-.49.5.07.87.37.42.34,1.64.88,2.15.55.09.09-.48,1.06,0,1.4.69.5.57-.38.76-.7.14-.22.81-.63.73-.98s-.92-.06-.74-.65c.91-.26,1.02.36,1.67.37-.17-.6.26-.72.81-.57.22.06.2,1.07.76,1.13.8.09.3-.52.57-.58.45-.09.92.18,1.3.17.34,0,1.35-.54,1.57-.34.06.06-.05.49,0,.55.35.4.36-.34.38-.35.37-.26.37.27.55.43.79.72,1.74-.53,1.16-.64-.32-.06-.5.18-.42-.37,1.51.5.67-1.21,1.02-1.3.43-.11.47,1.15.65,1.3.35.29.38-.37.47-.38.37-.04,1.16.5,1.71.26.39-.18.14-.59.32-.63.8-.16.68.15.65.75-.19.14-.6.65-.93.93-.78-.15-.48.27-.56.37-.04.05-.12.11-.19.19-.14.17-.24.24-.37.37-.2.05-.44.06-.61.18-.22.16-.8.87-.88.94-.03.02-.2-.03-.3.07-.37.33-.16.66-1,.31v.93c-.07.06-.12.13-.19.19-.44.03-.73.39-.93.74-2.16,1.89-4.23,3.78-6.5,5.57-1.17-1.43-2.37-2.83-3.53-4.27.09-.64-.38-.85-.93-.93-.02-.06.02-.13,0-.19-.4-1.25-.26-.67-1.3-1.48-.35-.27-.48-.35-.74-.74-.07-.1.18-.5-.37-.37-.41-.76-.9-1.19-1.48-1.86Z"/>
    <path class="cls-9" d="M126.43,22.94c-.08.13.06.39-.31.53-2.18.35-4.38.39-6.56.59-3.63.32-9.07.4-12.44,1.3-.11-.59.29-.31.64-.37,3.65-.63,7.28-.61,10.98-1.09.35-.05.24-.38.37-.38,1.98-.09,4.25.16,6.3-.18.42-.07.64-.28,1.01-.38Z"/>
    <path class="cls-10" d="M119.75,24.8c-.22.66-.02,1.8-.93,1.3-.04.04.4,1.56-.19.93-.1-.1,0-.75-.04-.84-.05-.14-.5.03-.33-.46.22.07.99.11,1.1-.01.18-.2-.32-1.09.38-.91Z"/>
    <path class="cls-9" d="M104.16,27.58c-.52.52-1.12.79-1.48,1.11-.39.36-.79.85-1.3,1.3v-.93c.84.36.63.02,1-.31.1-.09.27-.04.3-.07.08-.07.66-.78.88-.94.16-.12.41-.13.61-.18Z"/>
    <path class="cls-2" d="M105.27,26.65c-.28.24-.18.2-.56.37.08-.1-.23-.52.56-.37Z"/>
    <path class="cls-10" d="M96.36,38.35h-.18c-.09-.77.27-.77.18,0Z"/>
    <path class="cls-9" d="M101.19,30.18c-.3.26-.63.48-.93.74.2-.36.49-.72.93-.74Z"/>
    <path class="cls-10" d="M121.79,26.47c.13.06-.11.32-.37.18-.13-.06.11-.32.37-.18Z"/>
    <path class="cls-10" d="M112.88,8.09c.29-.48-.8-.56-.87-.61-.07-.04-.86-.65-.89-.69-.21-.3-.12-1.26-1.02-1.11-.08-.34.38-.06.37-.28s-.46-.02-.56-.09c-.16-.11.61-.89.66-.92.66-.28.3.26.32.32.02.05.54.47.6.78.1-1.02.74-.49,1.39-.74,1.2.49,6.52,3.21,7.31,3.92.45.42.46.84.78,1.26,1.17,1.54,8.43,4.5,10.6,5.91.91.6,1.26,1.11.88,2.25-1.38,2.01-2.41,4.26-3.72,6.31-.46.72-.96,1.73-1.75,2.06.04-.04,0-.25.11-.36.14-.14.45-.19.46-.3,0-.06-.32-1-.37-1.1-.17-.37-.14-.22-.48-.46l.28.55c-.9-.39-.34.03-.68.39-.27.29-.95.3-1.27.54.14-.51-.38-.82-.1-1.21-.84.24-.36-.13-.83-.65l-.28.74c-.34-.15-.38-.46-.82-.53-.22-.04-2.35.11-2.57.17-.14.04-.5,1.04-.87-.19,2.18-.19,4.39-.24,6.56-.59.37-.13.23-.4.31-.53.09-.14.12-.25.19-.37.22-.41.54-.75.56-1.3.34-.27.25-.51.37-.74.15-.28.29-.26.37-.74,0-.06,0-.12,0-.19.62-.9,1.31-1.7,0-2.23-.32-.13-.89-.16-.93-.19-.03-.02.14-.11-.37-.37-.13-.06-.25-.12-.37-.19-.48-.24-1.14-.8-1.67-.93-.05-.01-.12,0-.19,0-.26-.41-.78-.39-1.11-.56-.12-.06-.25-.12-.37-.19-.28-.14-.57-.39-.93-.56-.5-.23-1.15-.68-1.67-.74-.38-.46-1.03-.52-1.48-.74-.14-.07-.51-.26-.56-.37-.05-.14.03-.47-.09-.74-.78-1.73-1.42-1.41-2.88-2.23-.79-.44-1.59-1.09-2.41-1.48ZM110.93,5.12v.19c.12-.06.12-.12,0-.19ZM112.23,5.68v.19c.12-.06.12-.12,0-.19ZM111.86,6.42v.19c.12-.06.12-.12,0-.19ZM125.87,24.42l-.09-.55c-.2.17-.34.28-.28.55h.37ZM125.5,25.17c.09-.77-.27-.77-.18,0h.18Z"/>
    <path class="cls-9" d="M104.53,27.21c.06-.07.15-.14.19-.19-.05.03-.11.15-.19.19Z"/>
    <path class="cls-16" d="M53.86,69.9c-.06.13-.32-.11-.18-.37.06-.13.32.11.18.37Z"/>
    <path class="cls-16" d="M43.93,70.46c.12.06.12.12,0,.19v-.19Z"/>
    <path class="cls-16" d="M54.32,71.01c.12.06.12.12,0,.19v-.19Z"/>
    <path class="cls-1" d="M53.49,73.24c-.06.38.26,1.07-.37.93.37-.52-.42-.52-.37-.65.11-.27.47-.32.74-.28Z"/>
    <path class="cls-1" d="M50.98,72.5c.12.06.12.12,0,.19v-.19Z"/>
    <path class="cls-1" d="M53.77,72.68c.12.06.12.12,0,.19v-.19Z"/>
    <path class="cls-9" d="M115.3,9.58c1.46.82,2.1.5,2.88,2.23.12.27.03.6.09.74-.55-.14-.28.37-.41.51-.19.19-.87,0-.68.68.08.27.95.82,1.09.67l.28-.74.47.93-2.49.17c-.83-.55.19-.72.08-1-.24-.57-.92.09-1.11.41-.16.25-.16.77-.19.8-.07.06-1.62-.17-1.93-.17s-1.34.43-.5-.5c.41-.46,1.03.08.76-1.37-1.23-.36-1.28.66-2.23.56l.18-.74c-1.35-.13-1.6.23-1.3,1.48-.53.18-.74-.44-1.06-.53-.73-.2-1.63.69-1.35,1.46-1.02.2-.36-.68-.36-1.38,0-.35-.14-.93-.38-1.22.07-.03.25-.25.5-.33,2.55-.89,5.15-1.66,7.67-2.64Z"/>
    <path class="cls-9" d="M127.92,19.6c.02-.32.06-.92-.03-1.19-.1-.31-.53-.23-.53-.39,0-.33.3-.59.47-.28l.09-.37c1.31.53.62,1.33,0,2.23Z"/>
    <path class="cls-9" d="M124.39,15.7c-.18-.01-.37,0-.56,0l.55.65c.13.64-.84-.07-.94-.22-.17-.28-.18-.66-.18-.98.33.17.85.15,1.11.56Z"/>
    <path class="cls-9" d="M126.62,16.82c.51.27.34.36.37.37,0,.72-1.11.76-.93.28l.56-.65Z"/>
    <path class="cls-9" d="M126.25,16.63c-.67.01-1.52-.2-1.67-.93.53.13,1.19.69,1.67.93Z"/>
    <path class="cls-9" d="M122.91,14.96c-.49,1.31-.53.16-.93-.56.36.17.65.41.93.56Z"/>
    <path class="cls-9" d="M120.31,13.66c-.63-.08-.14-.02-.51-.17s-1.1.04-.97-.57c.45.23,1.11.29,1.48.74Z"/>
    <path class="cls-9" d="M127.17,21.27c-.01.55-.34.89-.56,1.3.2-.27.12-1.2.19-1.3.04-.05.32.04.37,0Z"/>
    <path class="cls-9" d="M127.92,19.79c-.08.48-.23.47-.37.74.02-.47-.19-.86.37-.74Z"/>
    <path class="cls-12" d="M125.87,24.42h-.37c-.06-.27.08-.39.28-.55l.09.55Z"/>
    <path class="cls-12" d="M125.5,25.17h-.18c-.09-.77.27-.77.18,0Z"/>
    <path class="cls-14" d="M111.86,6.42c.12.06.12.12,0,.19v-.19Z"/>
    <path class="cls-14" d="M112.23,5.68c.12.06.12.12,0,.19v-.19Z"/>
    <path class="cls-14" d="M110.93,5.12c.12.06.12.12,0,.19v-.19Z"/>
    <path class="cls-10" d="M110.47,6.61c.2.2-.17.57-.37.37s.17-.57.37-.37Z"/>
    <path class="cls-10" d="M110.75,6.42c.12.06.12.12,0,.19v-.19Z"/>
    <path class="cls-14" d="M90.8,7.53c-.39-.14.22-.46.33-.5,1.07-.41.74.13.86.12.1,0,1.77-.49,1.86-.55l-.09-.56c.28.04.26.48.65.55.14.03.19-.74.65-.55-.39.61.3.71.37,1.3-.13-.14-.38-.5-.41-.51-.35-.21-3.55.56-4.23.7Z"/>
    <path class="cls-14" d="M90.05,7.72c-.06.01-.13-.01-.19,0-.77.06-.2-.5.19,0Z"/>
    <path class="cls-14" d="M90.24,7.17c.13.06-.11.32-.37.18-.13-.06.11-.32.37-.18Z"/>
    <path class="cls-14" d="M92.93,6.05c.12.06.12.12,0,.19v-.19Z"/>
    <path class="cls-14" d="M93.67,5.49c.12.06.12.12,0,.19v-.19Z"/>
    <path class="cls-12" d="M64.44,56.91l-.09.55c-.2-.17-.34-.28-.28-.55h.37Z"/>
    <path class="cls-6" d="M74.28,29.25c.04-1.38.75-.18.83-.18,1.01.02.37-1.81.93-2.05,1.07-.46.13,1.5.32,1.82.28.47.99.42,1.32.48.2.04.34.28.56.27.61-.03,1.19-1.08.12-.9-.11-.33.28-.44.32-.67.04-.21-.23-.72-.14-.81.11-.1.48,0,.64.19.32.38.18,1.73.75,1.85.95.2-.14-1.31-.09-1.56l.92-.1c.13.15.35.31.56.56l.19.37c.71.86,1.93,1.6,2.23,2.78.05.2-.04.52,0,.74h.74c.06.06.13.12.19.18-.11.87.17,1.4,1.11,1.3.14.51-.33.34-.56.63-.57.71-.12,1.54-.18,1.59-.07.06-1.35-.22-1.67,0,.07-.29.25-2.14.18-2.23-.26-.33-.39.3-.52.36s-.73-.04-.4.38c.01.02.38-.04.38.11,0,.14-.18.61-.33.64-.84.22-.84-.39-.9-.39-.35-.01-.62.46-1.02.38.1-1.44-.68-.63-1.58-.73-.72-.07-1.43-1.07-1.57.36.63-.59,1.96,1.09,1.83,1.56-.06.21-.39.27-.52.41-.16.17-.18.43-.2.44-.61.51-.15-.7-.18-.74-.31-.37-.39.38-.48.38-.15,0-.93-.4-.73.17.07.19.41.39.28.75-.65.06-.47-.68-.73-1.03s-1.46-.65-1.31-1.28c.05-.2.47-.25.67-.37.08-.05.06-.31.16-.29.38.06.65.71.79.74.31.08.97.14.79-.37-.82-.2-.88-.65-1.98-.67-1.01-.02-1.82.68-2.01.67-.12,0-.06-.34-.21-.38-.37-.09-.86.08-1.24,0-.1-.02-.2-.74-.49-.37-.2.26,1.47,2.37-.74,2.23-.19-.17.92-1.01-.1-1.11-.06,0-.06.31-.22.36-.22.07-.53,0-.8.09-.93.3-.27.95-.37,1.03-.05.04-.99-.03-1.34.05-.47.11-1.3.88-1.53.89-.56,0-.4-.67-.47-.75-.03-.03-.52.22-.83.21-.57,0-.8-.36-1.1-.38-.2-.01-.56.23-.65.17-.03-.02-.07-.52-.29-.74-.13-.13-1.14-.63-1.2-.56l-.02.52-1.65.59-.37-1.11c-.13-.45-.12-1.58-.74-1.48h-.19c-.02-.12.03-.27,0-.37.23-1.04.41-.62.97-.93.68-.38.46-1.6.52-1.67.14-.15.81.2,1,.19.1,0,.1-.26.18-.3.27-.16.75.05.36-.43-.12-.15-.41-.1-.25-.75.84.32,1.37.55.93,1.48,1.2-.19,3.02-.64,2.6,1.11.55.03.31-.61,1.11-.37-.19.45.19,1.1.56.74s-.36-.6-.35-.63c.02-.24.26-.5.17-.91,0-.05-.69-.32-.37-.68.06-.07,1.23.59,1.67.18l-.74-1.67c.85-.21.43.42.57.53.1.08.41-.02.59.02.14.03.21.72.51.37.07-.08-.27-.67-.19-.74.02-.02.3.05.49-.07.09-.06.1-.29.16-.31.7-.2.34.45.64.66.21.15.86.11,1.23.26s.56.52.91.58c.49.09.29-.6.49-.72.18-.11.64.03.72-.03.41-.32-.74-.4-.37-.74.04-.04.61.14.74.18,0,.31,0,.62,0,.93h.74c-.07-.59-.3-.77-.74-.93ZM80.77,29.62c-.32-.32-.95.3-.27.55.39.15.33-.5.27-.55ZM79.47,30.92c-.2-.2-.57.17-.37.37s.57-.17.37-.37ZM69.08,31.11c-.2-.2-.57.17-.37.37s.57-.17.37-.37ZM70.01,31.11h-.55v.37h.55v-.37ZM74.46,31.48c-.2-.2-.57.17-.37.37s.57-.17.37-.37ZM71.49,31.66h-.74v.37h.74v-.37ZM76.32,31.66h-.55v.37h.55v-.37ZM82.26,31.66c-.2-.2-.57.17-.37.37s.57-.17.37-.37ZM67.96,31.85l-.55.09c.17.2.28.34.55.28v-.37ZM70.38,32.04c-.2-.2-.57.17-.37.37s.57-.17.37-.37ZM72.79,32.59c-.18-.2-.75.38-.55.55.32.28.83-.24.55-.55ZM65.37,33.34c-.2-.2-.57.17-.37.37s.57-.17.37-.37ZM71.46,33.55s-.4-.14-.52-.22l.28,1.11c.47.14.29-.82.24-.89ZM66.48,33.52h-.74v.37h.74v-.37ZM71.86,34.63s-1.56.21-1.11.56c.22.11,1.52-.18,1.11-.56ZM64.07,35.75c.3-.32-1.04-1.22-.74.19.18-.17.71-.16.74-.19ZM67.59,35.56c-.56-.55-1.07,1.22.19,1.11-.11-.21-.15-1.07-.19-1.11Z"/>
    <path class="cls-6" d="M74.26,35.21s.16.73.2.91l-1.67-.19c-.45-.67,1.29-.88,1.47-.72Z"/>
    <path class="cls-8" d="M28.62,54.87s-.02-.76.37-.37-.35.34-.37.37c-.43.48,1.02.72,1.08.77.08.06.2.88.21,1.09l-.37-.74c-.92.25-1.29.43-2.23,0l.83-.93c.15-.15.45-.15.47-.18Z"/>
    <path class="cls-8" d="M12.1,59.88c.23,1.2-.32.94-1.3,1.11l.42-.87.88-.24Z"/>
    <path class="cls-8" d="M9.87,59.51c.07.05.62.01.76-.08.27-.18-.05-.82.54-.66l-.19,1.3s-1.03-.2-1.07-.24c-.1-.09-.02-.29-.04-.32Z"/>
    <path class="cls-8" d="M13.4,59.51c.3.32-.52,1.39-.74,1.11-.31-.4.33-1.54.74-1.11Z"/>
    <path class="cls-17" d="M43.65,51.34v-.93c.49.17.73.19,1.11-.19-.37.34-.7.73-1.11,1.11Z"/>
    <path class="cls-8" d="M32.51,57.46c.1.1-.24,1.06-.56.74-.1-.1.24-1.06.56-.74Z"/>
    <rect class="cls-8" x="22.49" y="58.58" width=".37" height=".55"/>
    <path class="cls-8" d="M9.87,58.76c.55-.11.58.47,0,.37-.01-.04-.13-.08-.13-.15,0-.15.13-.2.13-.22Z"/>
    <path class="cls-8" d="M21.19,58.95c.2.2-.17.57-.37.37s.17-.57.37-.37Z"/>
    <path class="cls-6" d="M41.24,53.57c-.34.33-.73.64-1.11.93.32-.36.55-.9,1.11-.93Z"/>
    <path class="cls-17" d="M43.47,51.52l-.37.19c.18-.17.36-.17.37-.19Z"/>
    <path class="cls-6" d="M41.79,53.01c.25-.24.45-.48.74-.74l-.74.74Z"/>
    <path class="cls-11" d="M17,67.79c.1.11.36.03.29.16-.26.4-1.67,1.07-1.83.36-.01-.05.14-.96.17-.99.39-.38,1.08.17,1.37.47Z"/>
    <path class="cls-3" d="M15.07,62.47s-.54.02-.55,0c-.03-.03.05-.49-.09-.74-.16-.27-.76-.24-.65-.75.94-.55,1.58,1.21,1.3,1.48Z"/>
    <path class="cls-11" d="M24.35,66.56c.03.44.11,1.16-.55,1.11.08-.32-.02-1.25.55-1.11Z"/>
    <rect class="cls-3" x="26.39" y="58.21" width=".55" height=".74"/>
    <path class="cls-3" d="M25.09,58.21c.2.2-.17.57-.37.37s.17-.57.37-.37Z"/>
    <path class="cls-8" d="M12.65,69.34c.2.2-.17.57-.37.37s.17-.57.37-.37Z"/>
    <path class="cls-9" d="M30.29,37.6s.25-.18.11-.36c-.16-.21-2.09-1.05-1.6-1.68.29-.37.38.35.49.38.23.04.66-.09.78.02.06.05.02.42.21.62.11.12.84.47,1.02.47.38-.63-.14-1.11-.28-1.67.34-.33,1.21,1.26,1.84.72.13-.11-.23-.58.29-.54s1.19.75,1.45.71c1.11-.18.38-1.16.5-1.26.03-.03.54.03.78-.05s.94-.71.89-.04c-.05.61-.74-.12-.56.83.47-.17,1.16,0,1.54-.06.22-.03.39-.34.76-.32.1,0,.09.68,1.03.48s-.09-.73,0-.93c.35-.8,1,.2,1.24.25.27.06.55-.18.85-.12.22.05.4.38.78.35.53-.04.45-.84,1.02-.76l.28.93.47-1.86c.25-.24,1.61.97,2.13-.19.42-.94-.18-1.28,1.59-1.11.21.8-.6.5-1.06.98-.14.14-.75,1.3-.61,1.43,1.15-.43.72,1.16,1.21,1.3.83.23,1.32-1.8,1.48-1.86.83-.32.21.93.64,1.22.15.1,2.02.3,2.42.45-.22-.99-.66-1.24-1.48-.56-.55-.8,1.01-1.3.74-1.67-.35-.48-2.18.5-1.31-.66,1.01-1.34,1.4.56,1.5.66.07.07.81-.3.93-.19.09.09-.15,1.36,1.06,1.46.28.02.9-1.19,1.36-.72.34.35-.21.86-.3,1.01-.29.46.1.6-1,.48-.05.45.18.86.19,1.3,0,.06,0,.13,0,.19-.73-.24-.78.9-.93,1.48-.25.46-.49.85-.74,1.3-.36.04-1.62.13-1.78.36-.17.25-.01.7-.08,1-.03.14-.32.11-.36.26-.07.27.05,1.28-.32,1.36-.55-.08-1.27.1-1.79-.01-.27-.06-1.23-1.64-1.34-1.67-.4-.1-.35.49-.56.56-.37.12-.2-.28-.51-.43-.58-.27-2.75-.48-3.1-.12-.16.16.28,1.02-.29.92-.53-.37.07-.81-.18-1.3s-.89-.29-1.03-.37v.74s-.28,0-.28,0c-.29-.2-.32-.4-.28-.74h.56s.07-.33-.12-.38c-.9-.23-.73.6-1.02,1.01-.23.32-.77.51-.91,1.04-.08-.04-.3.04-.37,0-1.7-.93-3.37-2.05-5.07-3.01-.49-.27-2.85-1.3-2.91-1.63Z"/>
    <path class="cls-4" d="M52,40.02c-1.53,2.67-2.98,4.9-4.64,7.42-.59-.58-1.35-1.03-2.04-1.48-.02-.67-.39-.45-.74-.56-1.65-.48-2.8-1.44-4.27-2.23.34-.52-1.35-1.34-1.11-.56-.22-.12-.4-.28-.56-.37.14-.53.68-.72.91-1.04.29-.4.12-1.23,1.02-1.01.19.05.1.37.12.38h-.56c-.04.34-.01.55.28.74h.27s0-.74,0-.74c.14.08.77-.13,1.03.37s-.35.93.18,1.3c.56.1.13-.76.29-.92.35-.36,2.53-.15,3.1.12.31.14.14.55.51.43.2-.07.15-.66.56-.56.11.03,1.07,1.61,1.34,1.67.51.11,1.23-.06,1.79.01.36-.08.24-1.09.32-1.36.04-.15.32-.12.36-.26.07-.3-.09-.75.08-1,.15-.22,1.42-.32,1.78-.36Z"/>
    <path class="cls-15" d="M59.43,33.89c.03.1-.02.25,0,.37.05.27.19.98.15,1.16-.06.27-1.36,2.69-1.63,3.29-.67-.4-1.23.29-1.73.19-.11-.02-1.36-1.08-.87-1.49-.62.1-.12.87-.18.93-.04.03-.29-.05-.4.02-.16.11-.2.32-.29.35-1.07.31-.32-.58-.43-.73l-.56-.19c.04-.09.18-.5.19-.56s0-.13,0-.19c.12-.04.26-.17.37-.19.01,0,.1.14.18.09.53-.33.27-.72.37-1.02.43-1.21,1.03-2.06,1.67-3.16.24-.41.38-.8.56-1.11.24-.41.98-1.07,1.11-1.3.22,1.19,1.21,2.42,1.48,3.53Z"/>
    <path class="cls-4" d="M53.67,37.23c0,.06-.15.47-.19.56-.14.31-.65.76-.74.93.14-.58.2-1.72.93-1.48Z"/>
    <path class="cls-15" d="M55.71,38.9c-.08.38.29,1.27-.37,1.11.36-.66-.79-1.23.37-1.11Z"/>
    <path class="cls-2" d="M59.61,34.26c.63-.1.61,1.03.74,1.48.02.06-.02.13,0,.19-.44-.44-.61-1.08-.74-1.67Z"/>
    <path class="cls-10" d="M41.05,57.84c.2.2-.17.57-.37.37s.17-.57.37-.37Z"/>
    <path class="cls-10" d="M37.06,59.13c.12.06.12.12,0,.19v-.19Z"/>
    <path class="cls-9" d="M56.83,31.66c-.18.31-.31.7-.56,1.11-.21-.07-1.6-.83-1.3-1.11.24-.09.82.26.92.19.2-.15-.02-1.51.93-.19Z"/>
    <path class="cls-9" d="M53.49,33.15c.29.29-.26.85-.55.55s.26-.85.55-.55Z"/>
    <path class="cls-9" d="M39.01,34.63c.2.2-.17.57-.37.37s.17-.57.37-.37Z"/>
    <path class="cls-9" d="M104.72,13.29c.08.35-.19,1.49-.55,1.11-.05-.05.03-.71-.37-.74.3-.11.62-.26.93-.37Z"/>
    <path class="cls-9" d="M101,14.59c.47.65-.07.85-.37.19.09-.03.21-.13.37-.19Z"/>
    <path class="cls-9" d="M103.6,13.66c.02.32.07.43-.28.37l-.09-.18c.1-.03.22-.13.37-.19Z"/>
    <path class="cls-17" d="M17.11,46.51v.84c-.61.35-.84-.26-.74-.83h.74Z"/>
    <rect class="cls-17" x="13.95" y="46.51" width=".37" height=".55"/>
    <path class="cls-17" d="M14.14,44.47c.2.2-.17.57-.37.37s.17-.57.37-.37Z"/>
    <path class="cls-17" d="M27.5,42.99c.2.2-.17.57-.37.37s.17-.57.37-.37Z"/>
    <path class="cls-17" d="M12.93,48c.12.06.12.12,0,.19v-.19Z"/>
    <path class="cls-17" d="M15.72,47.26c.12.06.12.12,0,.19v-.19Z"/>
    <path class="cls-9" d="M39.2,42.61c-.23-.78,1.45.04,1.11.56-.34-.18-.73-.35-1.11-.56Z"/>
    <path class="cls-9" d="M45.32,45.96c-.19-.13-.64-.09-.74-.56.35.1.73-.11.74.56Z"/>
    <path class="cls-3" d="M28.06,48.74c.2.2-.17.57-.37.37s.17-.57.37-.37Z"/>
    <path class="cls-3" d="M40.31,49.11c.2.2-.17.57-.37.37s.17-.57.37-.37Z"/>
    <path class="cls-3" d="M27.97,49.3c.12.06.12.12,0,.19v-.19Z"/>
    <path class="cls-6" d="M84.11,25.17c-.1-.11-.24-.22-.37-.37l-.09-.74c.8-.18,1.24.65.46,1.11Z"/>
    <path class="cls-9" d="M89.31,31.11l-1.3-1.48c1.04.81.9.23,1.3,1.48Z"/>
    <path class="cls-17" d="M84.48,32.04h-.74c-.04-.23.05-.54,0-.74.63-.06.6.58.74.74Z"/>
    <path class="cls-9" d="M90.24,32.22c-.13-.16-.89-.8-.93-.93.55.07,1.02.29.93.93Z"/>
    <path class="cls-9" d="M86.9,28.51c.55-.12.31.27.37.37-.2-.06-.28-.2-.37-.37Z"/>
    <path class="cls-2" d="M81.52,28.51l-.19-.37c.13.16.16.33.19.37Z"/>
    <path class="cls-15" d="M78.17,71.2v.74c-.44.14-.51-.34-.56-.74h.56Z"/>
    <path class="cls-16" d="M99.33,62.29c.32.32-.28,1.08,1.12.56-.19.42-.59.19-.46.74-.22-.24-.78-.12-.94-.36-.24-.33-.1-1.32.29-.94Z"/>
    <path class="cls-16" d="M100.45,61.18c-.04.62.63.68.37,1.48-.61.08-.48-.55-.63-.87-.02-.05-.87-.34.25-.61Z"/>
    <path class="cls-16" d="M97.48,67.49c.2.2-.17.57-.37.37s.17-.57.37-.37Z"/>
    <path class="cls-5" d="M94.6,63.4c.12.06.12.12,0,.19v-.19Z"/>
    <path class="cls-1" d="M96.27,52.64c.12.06.12.12,0,.19v-.19Z"/>
    <path class="cls-16" d="M94.08,52.77s-.48.26-.5.24c.33-1.01.14-.44-.56-.93.55-.88,1.12.57.93-1.11.48.26.38,1.46.13,1.8Z"/>
    <rect class="cls-16" x="91.54" y="54.49" width=".55" height=".37"/>
    <path class="cls-16" d="M92.65,54.12c.13.06-.11.32-.37.18-.13-.06.11-.32.37-.18Z"/>
    <path class="cls-16" d="M92.56,54.68c.12.06.12.12,0,.19v-.19Z"/>
    <path class="cls-8" d="M86.34,51.34c-.13.38-.07.81-.56,1.11-.06-.04-.38.09-.38-.1,0-.58.34-1.01.94-1.01Z"/>
    <path class="cls-8" d="M70.7,51.58c.55.2.91,1.63-.04,1.62-.05,0-.2-.58-.84-.47.32-.72-.13-1.52.88-1.14Z"/>
    <path class="cls-17" d="M82.8,46.13c-.6.39-.62-.42-.54-.91.74-.26.87.69.54.91Z"/>
    <path class="cls-17" d="M86.88,47.65c.33.54-.24.64-.72.54v-.74c.06-.06.7.17.72.2Z"/>
    <path class="cls-17" d="M68.89,50.04c-.31.35.63.69.37.93-.37.34-1.39-.94-.37-.93Z"/>
    <path class="cls-17" d="M84.67,49.3c.54.5-1.09.43-1.11-.19.19.02,1.07.15,1.11.19Z"/>
    <rect class="cls-17" x="81.89" y="46.88" width=".93" height=".37"/>
    <path class="cls-17" d="M79.47,48.74c.28.32-.24.83-.55.55-.2-.18.38-.75.55-.55Z"/>
    <path class="cls-17" d="M70.38,49.11c.2.18-.38.75-.55.55-.28-.32.24-.83.55-.55Z"/>
    <rect class="cls-17" x="70.75" y="48.93" width=".55" height=".37"/>
    <rect class="cls-17" x="83.93" y="46.51" width=".55" height=".37"/>
    <path class="cls-17" d="M82.07,48.74c.2.2-.17.57-.37.37s.17-.57.37-.37Z"/>
    <path class="cls-17" d="M83.93,45.59c.2.2-.17.57-.37.37s.17-.57.37-.37Z"/>
    <path class="cls-17" d="M72.23,48.56c.2.2-.17.57-.37.37s.17-.57.37-.37Z"/>
    <path class="cls-8" d="M85.04,50.41c.2.2-.17.57-.37.37s.17-.57.37-.37Z"/>
    <path class="cls-8" d="M83.74,50.78c.2.2-.17.57-.37.37s.17-.57.37-.37Z"/>
    <path class="cls-17" d="M80.03,51.53c.2.2-.17.57-.37.37s.17-.57.37-.37Z"/>
    <path class="cls-8" d="M74.28,51.9c.2.2-.17.57-.37.37s.17-.57.37-.37Z"/>
    <path class="cls-8" d="M69.08,52.08c.2.2-.17.57-.37.37s.17-.57.37-.37Z"/>
    <path class="cls-17" d="M71.03,51.34c.12.06.12.12,0,.19v-.19Z"/>
    <path class="cls-9" d="M111.74,14.61c.4.49-.34.78-.35.84,0,.08.33,1.47-.27,1.18s-.03-1.16-.12-1.54c-.08-.32-.63-.44-.53-.87.07-.06,1.23.34,1.27.4Z"/>
    <path class="cls-6" d="M103.05,22.2c.06.07-.26,1.04-.34,1.24s-.19.76-.49.61c-.4-.25-.21-.66-.28-.98-.05-.22-.54,0-.37-.5.32-.04.69.07.99,0,.11-.02.19-.73.49-.37Z"/>
    <path class="cls-6" d="M92.45,25.56c.59.96-1.68.4-1.1-.2.21-.03,1.03.1,1.1.2Z"/>
    <path class="cls-6" d="M85.78,24.8c.32.37-.65.61-.93.55v-.93c.04-.05.89.34.93.37Z"/>
    <rect class="cls-6" x="94.69" y="23.5" width=".37" height=".93"/>
    <path class="cls-9" d="M107.13,16.81v-.74c.74,0,.73.74,0,.74Z"/>
    <rect class="cls-9" x="115.3" y="16.82" width=".55" height=".37"/>
    <path class="cls-6" d="M92.84,26.47c.2.2-.17.57-.37.37s.17-.57.37-.37Z"/>
    <path class="cls-6" d="M88.2,25.54c.2.2-.17.57-.37.37s.17-.57.37-.37Z"/>
    <path class="cls-9" d="M123.09,16.26c.2.2-.17.57-.37.37s.17-.57.37-.37Z"/>
    <path class="cls-6" d="M92.84,24.61c.2.2-.17.57-.37.37s.17-.57.37-.37Z"/>
    <path class="cls-9" d="M117.52,15.15c.2.2-.17.57-.37.37s.17-.57.37-.37Z"/>
    <path class="cls-9" d="M105.27,15.33c.2.2-.17.57-.37.37s.17-.57.37-.37Z"/>
    <path class="cls-17" d="M67.59,35.56s.08.9.19,1.11c-1.25.11-.75-1.66-.19-1.11Z"/>
    <path class="cls-17" d="M71.46,33.55c.05.07.23,1.03-.24.89l-.28-1.11c.12.07.51.19.52.22Z"/>
    <path class="cls-17" d="M71.86,34.63c.4.37-.89.66-1.11.56-.44-.34,1.06-.6,1.11-.56Z"/>
    <path class="cls-17" d="M64.07,35.75s-.56.01-.74.19c-.3-1.41,1.04-.51.74-.19Z"/>
    <rect class="cls-2" x="70.75" y="31.66" width=".74" height=".37"/>
    <rect class="cls-2" x="65.74" y="33.52" width=".74" height=".37"/>
    <path class="cls-2" d="M80.77,29.62c.05.05.12.7-.27.55-.67-.26-.05-.88.27-.55Z"/>
    <path class="cls-2" d="M72.79,32.59c.28.31-.24.84-.55.55-.2-.18.38-.75.55-.55Z"/>
    <rect class="cls-2" x="69.45" y="31.11" width=".55" height=".37"/>
    <rect class="cls-17" x="75.76" y="31.66" width=".55" height=".37"/>
    <path class="cls-2" d="M67.96,31.85v.37c-.27.06-.39-.08-.55-.28l.55-.09Z"/>
    <path class="cls-17" d="M65.37,33.34c.2.2-.17.57-.37.37s.17-.57.37-.37Z"/>
    <path class="cls-2" d="M70.38,32.04c.2.2-.17.57-.37.37s.17-.57.37-.37Z"/>
    <path class="cls-2" d="M82.26,31.66c.2.2-.17.57-.37.37s.17-.57.37-.37Z"/>
    <path class="cls-17" d="M74.46,31.48c.2.2-.17.57-.37.37s.17-.57.37-.37Z"/>
    <path class="cls-2" d="M69.08,31.11c.2.2-.17.57-.37.37s.17-.57.37-.37Z"/>
    <path class="cls-2" d="M79.47,30.92c.2.2-.17.57-.37.37s.17-.57.37-.37Z"/>
    <path class="cls-13" d="M54.04,36.86c.05-.38.19-.77.56-.93-.11.3.16.69-.37,1.02-.09.06-.17-.09-.18-.09Z"/>
  </g>
  <g>
    <path class="cls-7" d="M167.02,11.42c.35,0,.83-.05,1.43-.15l.3.15.3-.15.3.15c.1,0,.25-.05.45-.15.75.05,1.13.15,1.13.3l.3-.15h.15c.1,0,.15.05.15.15l.3-.15h.68l.91.15c.2-.15,1.41-.3,3.62-.45,2.57.2,5.33,1.13,8.3,2.79,1.76,1.71,2.97,4.13,3.62,7.24,0,.4.1.7.3.91h-.15c.15.75.3,1.23.45,1.43,0,.1-.05.15-.15.15.45,1.26.78,3.72.98,7.4-1.16,7.34-2.74,11.65-4.75,12.9-1.96,2.82-5.66,4.23-11.09,4.23h-2.72l-.3-.15v.15c0,.2.05.3.15.3l-.15,1.58v3.92c0,1.51.05,2.87.15,4.07l-.6,11.47.15.75c-.25,1.26-.5,1.89-.75,1.89h-.15l-.68-.91c0,.2-.1.3-.3.3h-2.64c-1.51,0-3.87.05-7.09.15l-.3-.68c.1-.5.2-.75.3-.75,0-.1-.05-.15-.15-.15.15-1.01.25-1.63.3-1.89,0-.1-.05-.15-.15-.15l.15-.75v-7.7c0-.1.05-.15.15-.15,0-.15-.05-.23-.15-.23,0-1.61-.05-3.8-.15-6.56.1-5.89.15-10.11.15-12.68h.15l-.15-.38v-.15c0-.1.05-.15.15-.15l-.15-.3v-.15c0-.1.05-.15.15-.15,0-.1-.05-.15-.15-.15l.15-.83-.15-.91.15-.75c0-.35-.05-.73-.15-1.13,0-.15.05-.88.15-2.19,0-.55-.1-4.96-.3-13.21l-.15-.3c.1-.2.15-.35.15-.45,0-.65-.05-1.61-.15-2.87.2-1.61.3-3.02.3-4.23,0-.15.15-.3.45-.45h.53c.1,0,.15.05.15.15.1,0,.15-.05.15-.15l.75.15h.68c.2,0,.4-.05.6-.15.2.1.4.15.6.15l.45-.3v.15c.4-.2.83-.3,1.28-.3,1.06,0,1.58.15,1.58.45ZM160.46,20.86h.3c0-.2-.1-.3-.3-.3v.3ZM160.61,21.76c-.1,0-.15.05-.15.15l.3.15v-1.06h-.3l.15.75ZM172,25.99l.38,4.45h-.15c0,.1.05.15.15.15l-.15,1.06v3.17l-.23,1.13c3.47-.5,5.21-1.31,5.21-2.41.65-.3,1.03-1.96,1.13-4.98-.35-.1-.53-.53-.53-1.28,0-.1.08-.15.23-.15l-.23-.75v-1.13c-.7-1.66-1.63-2.49-2.79-2.49,0-.2-.25-.3-.75-.3h-.15c-1.26.1-1.89.35-1.89.75,0,.91-.08,1.84-.23,2.79Z"/>
    <path class="cls-7" d="M207.84,12.63c-.3,5.28-.45,9.68-.45,13.21.1,4.48.15,6.99.15,7.55.1.2.15.35.15.45s-.05.15-.15.15c.3,2.31.45,4.4.45,6.26l-.15.6c0,.1.05.15.15.15l-.15.83c-.35,8.75-.63,13.83-.83,15.24,0,.1.08.15.23.15l-.23,1.06v.98c0,.2.63.4,1.89.6h3.17c.55,0,3.27.15,8.15.45.2.45.35,1.08.45,1.89l-.15.83v2.64c0,.1-.05.15-.15.15l.15.3v3.47l.53.6v.38c0,.15-.38.4-1.13.75l-1.13-.15c-1.31.2-2.09.3-2.34.3-2.57-.3-4.45-.45-5.66-.45h-.45c-.1,0-.15-.05-.15-.15l-.3.15h-.75c-1.06,0-2.64.05-4.75.15v-.15c-.2.1-.35.15-.45.15l-9.28.15c0-.2-.1-.3-.3-.3.5-2.16.75-4.05.75-5.66-.1-.2-.15-.35-.15-.45h.15c0-.1-.05-.15-.15-.15l.15-1.13v-1.58c0-.35-.05-.6-.15-.75l.15-.98v-1.51c0-.15.05-.23.15-.23-.1-.2-.15-.35-.15-.45,0-3.62.28-9.33.83-17.13,0-1.11-.05-2.57-.15-4.38.1-3.57.2-6.09.3-7.55-.1-.15-.15-.4-.15-.75h.15c0-.1-.05-.15-.15-.15l.15-1.13v-2.64c0-.75.05-1.33.15-1.74-.1-.7-.15-1.38-.15-2.04v-5.36c0-.2-.05-.4-.15-.6l.15-.3c0-.7-.2-1.28-.6-1.74v-.15c0-.25.78-.4,2.34-.45.1,0,.15.05.15.15l.75-.15c2.11,0,3.17.1,3.17.3l.75-.15h3.02l1.06.15c.1-.55.28-.83.53-.83.05,0,.25.38.6,1.13ZM195.77,70.06h.45v-.15h-.45v.15ZM197.35,13.24l1.81.53c0-.3-.45-.53-1.36-.68h-.45v.15ZM201.05,13.08l.23.3.3-.15c.4.2,1.03.38,1.89.53l3.09-.38c0-.2-.1-.3-.3-.3h-2.49c-.1,0-.15-.05-.15-.15l-.3.15h-2.26Z"/>
    <path class="cls-7" d="M235.16,12.18h.6l1.43-.6.6.45c.1,2.26.15,3.92.15,4.98v2.57c-.2,3.72-.3,5.81-.3,6.26v1.28l-.15.91c.1.15.15.4.15.75h-.15c0,.15.05.23.15.23l-.15.75v2.19c0,1.76-.1,4.63-.3,8.6h-.15l.15.38v.15c0,.3-.05.45-.15.45l.15.75v4.6c0,.96.05,2.31.15,4.07-.1.2-.15.35-.15.45l.45.91v1.58c.55,3.77.93,5.86,1.13,6.26.7.35,1.28.53,1.74.53h1.36c1.16-.6,1.74-1.81,1.74-3.62.1,0,.23-.83.38-2.49-.25,0-.38-.13-.38-.38.65-3.02.98-5.73.98-8.15h.15l-.15-.3v-.15c0-.8.05-1.53.15-2.19-.4-2.87-.6-4.33-.6-4.38l.15-.83v-3.09l-.15-1.58h.15l-.15-.3v-5.21l-.15-.91c.1-.96.2-1.43.3-1.43,0-.1-.05-.15-.15-.15.2-.86.35-3.12.45-6.79h.15c0-.1-.05-.15-.15-.15l.15-.75v-2.04c0-.1.05-.15.15-.15l-.15-.3v-1.43h-.15l-1.13.15v-.3c0-.1.58-.68,1.74-1.74h.83c.1,0,.15.05.15.15l2.79-.45v.15c.35-.2.68-.3.98-.3h1.21c.75,0,1.13.1,1.13.3l1.58-.15h.6l1.06.15c.05-.2.18-.3.38-.3h.3c.2,0,.3.15.3.45.2,2.77.3,4.43.3,4.98v1.28c0,.6-.05.98-.15,1.13.1.55.15,1.01.15,1.36v1.43c0,1.71-.05,2.97-.15,3.77.2,2.72.3,6.84.3,12.38,0,.75-.05,1.91-.15,3.47.1.15.15.48.15.98,0,.1-.05.15-.15.15,0,.1.05.25.15.45-.1,1.36-.15,2.47-.15,3.32v1.36c0,.25-.05.48-.15.68.1.15.15.35.15.6v.91c-.3,6.39-.78,10.01-1.43,10.87,0,1.16-1.51,3.92-4.53,8.3-3.07,2.41-6.84,3.62-11.32,3.62-.05-.25-1.61-.73-4.68-1.43-1.71-.6-3.3-1.63-4.75-3.09-.75-.55-1.74-1.91-2.94-4.07-.4-1.86-.73-3.02-.98-3.47,0-.1.08-.15.23-.15l-.68-3.62h.15l-.15-.3v-.68c0-1.36.05-3.12.15-5.28l-.15-.3c.1-.2.15-.43.15-.68v-.6c0-.3-.05-.45-.15-.45l.15-.83v-1.58c0-.2.05-.4.15-.6,0-.1-.05-.15-.15-.15l.15-.6c-.1-.7-.15-1.28-.15-1.74h.15l-.15-.3v-2.04c0-.1.05-.15.15-.15,0-.1-.05-.15-.15-.15l.15-.83v-1.43c0-.1.05-.15.15-.15,0-.1-.05-.15-.15-.15l.15-.75v-.98c0-.55-.05-1.28-.15-2.19l.15-.3-.15-.3.15-.3c0-.1-.05-.15-.15-.15.25-1.21.38-3.24.38-6.11v-.38c0-.3-.08-.45-.23-.45l.23-.75v-5.66c0-.25-.08-.45-.23-.6l.23-.38-.23-.3.23-.3c-.15-.2-.23-.4-.23-.6h.23l-.23-.3c0-.1.08-.15.23-.15,0-.15-.08-.33-.23-.53.15-.86.23-1.58.23-2.19v-.45c0-.1.05-.15.15-.15,0-.45-.43-.98-1.28-1.58,0-.5,1.21-.88,3.62-1.13,1.06,0,3.14.33,6.26.98ZM227.01,12.33h.45v-.15h-.45v.15ZM227.61,12.48c1.26.1,2.16.15,2.72.15h.45c.2,0,.4.05.6.15.75-.15,1.13-.3,1.13-.45-1.16-.2-2.36-.3-3.62-.3h-1.13c0,.1-.05.25-.15.45ZM244.89,52.55h.3v-1.13c-.2.05-.3.15-.3.3v.83ZM245.05,51.27h.15v-.45h-.15v.45Z"/>
    <path class="cls-7" d="M267.38,10.67c.86.5,2.11.86,3.77,1.06.1,0,.15-.05.15-.15l.98.15c1.36,0,3.07.18,5.13.53,0-.35.13-.53.38-.53h.45c0,.3.3,1.36.91,3.17-.1,0-.15.05-.15.15.3,0,1.46,3.55,3.47,10.64l2.64,8.68c2.01,5.68,3.02,8.7,3.02,9.06h.15v-3.4c0-.35-.05-.63-.15-.83l.15-.91v-5.51c0-.1.05-.15.15-.15l-.15-.3c0-2.06.05-6.41.15-13.05-.1-3.37-.15-5.66-.15-6.87l.45-.38h3.32l.75-.15v.15l.3-.15c.35.2.98.38,1.89.53l.38-.15.3.15.3-.15.3.15.3-.15.3.15.3-.15.38.15.3-.15.3.15c.2-.1.35-.15.45-.15v.15l.3-.15h.53c.35,0,.55,1.81.6,5.43v5.96c0,.8.05,1.53.15,2.19-.1.91-.2,3.85-.3,8.83.1.2.15.35.15.45h-.15c.1.2.15.35.15.45.2,3.12.35,7.37.45,12.75l-.15.6c.1.2.15.48.15.83v.3c0,.1-.05.15-.15.15l.15.3v4.53l.15,1.58h-.15l.15.3v.15c-.4,7.9-.7,12.45-.91,13.66-1.11.55-2.47.83-4.07.83h-.53c-.4,0-.8-.05-1.21-.15-3.92.4-6.01.6-6.26.6-.1-.2-.15-.35-.15-.45h-.98c-.2,0-.3-.1-.3-.3,0-.25.15-.38.45-.38l-1.28-3.92c-2.82-7.45-4.23-11.47-4.23-12.07-1.86-6.44-3.67-11.97-5.43-16.6-.15-.2-.23-.43-.23-.68h-.3v3.92c0,.15-.05.23-.15.23l.15.3v.75c0,.1-.05.15-.15.15l.15.3v.15c0,.25-.05.48-.15.68,0,.1.05.15.15.15l-.15,1.58v.45l.15.91c0,.1-.05.15-.15.15l.3,3.17h-.15l.15.3v.15c0,.1-.05.15-.15.15l.15.38v.15c0,.1-.05.15-.15.15l.15.3v2.04c-.2,3.37-.3,5.21-.3,5.51v.45c0,.1.05.15.15.15-.2.65-.3,2.01-.3,4.07v1.28c0,2.47.2,3.97.6,4.53v.15c0,.15-.2.35-.6.6h-.45l-.45-.3-.38.15c-.1,0-.15-.05-.15-.15l-1.89.3v-.15c-.75.35-1.21.53-1.36.53-.4,0-1.56-.13-3.47-.38-.1,0-.15.08-.15.23-1.16-.15-1.74-.33-1.74-.53v-.6c0-.1.05-.15.15-.15,0-.1-.05-.15-.15-.15l.3-1.89c-.1-.2-.15-.35-.15-.45h.15c0-.1-.05-.15-.15-.15,0-.3.1-1.06.3-2.26-.1-.2-.15-.35-.15-.45.1-.55.15-.96.15-1.21-.1-.25-.15-.43-.15-.53h.15l-.15-.3.15-1.06c0-.15-.05-.23-.15-.23l.15-.75v-4.98c0-.25-.05-.48-.15-.68l.15-.3c-.2-2.77-.3-4.38-.3-4.83.1-.2.15-.38.15-.53-.1-.2-.15-.35-.15-.45l.15-.75-.15-.3c.2-1.31.3-2.36.3-3.17,0-.4-.1-1.91-.3-4.53l.3-2.41c-.1-2.36-.15-4.55-.15-6.56v-1.89c0-.25.05-.45.15-.6-.1-.2-.15-.35-.15-.45h.15c0-.15-.05-.23-.15-.23l.15-.75c0-.86-.05-2.74-.15-5.66l-.15-.3c0-.1.05-.15.15-.15l-.15-1.13v-2.04c0-.1.05-.15.15-.15,0-.1-.05-.15-.15-.15.2-1.31.3-2.14.3-2.49l-.15-.3c.1-.2.15-.43.15-.68,0-.1-.05-.25-.15-.45,0-.1.05-.15.15-.15l-.15-.75v-.53c0-.2.33-.35.98-.45,0,.1.05.15.15.15v-.15c-.1-.2-.15-.35-.15-.45l.6-.45h.6ZM298.77,69.23h.15v-.38h-.15v.38ZM298.77,69.68h.15v-.3h-.15v.3ZM298.92,63.42h.38v-.15h-.38v.15ZM298.92,64.32h.15v-.6h-.15v.6ZM298.92,64.77h.15v-.3h-.15v.3ZM299.3,59.12h.15v-.75h-.15v.75Z"/>
    <path class="cls-7" d="M323.83,10.9c.1,0,.15-.05.15-.15.96.1,1.53.2,1.74.3.2-.1.38-.15.53-.15,2.06,0,4.73,1.41,8,4.23.96,1.11,1.79,2.62,2.49,4.53.75,1.76,1.28,4.43,1.58,8-.2.45-.3.78-.3.98-.25,0-.48-.05-.68-.15-.5.2-.86.3-1.06.3v-.15c-1.91.3-3.27.45-4.07.45h-2.41c-2.82,0-4.23-.2-4.23-.6.2-.7.3-1.13.3-1.28,0-3.47-.93-5.21-2.79-5.21h-.3c-1.26,0-2.36,1.48-3.32,4.45v3.24c0,.3-.1.63-.3.98,0,1.71.05,4.9.15,9.58-.1,8.15-.25,13.48-.45,16,.65,3.02,1.63,4.53,2.94,4.53h1.28c2.01,0,3.02-2.09,3.02-6.26,0-.1-.08-.15-.23-.15,0-.1.08-.25.23-.45-.15-2.21-.23-4-.23-5.36v-2.04h-.15c-1.96,0-2.94-.2-2.94-.6v-8.98l-.3-.45c.15-.45.4-.78.75-.98,1.86.1,2.97.15,3.32.15v.15c.1,0,.15-.05.15-.15.75.1,1.16.15,1.21.15,1.11,0,3.22-.05,6.34-.15,1.26.1,2.19.15,2.79.15.2-.1.35-.15.45-.15.05.25.18.38.38.38l-.23,1.51v.15c0,.25.08.48.23.68l-.23.3.23.3c-.15.2-.23.35-.23.45s.08.28.23.53l-.23.6c.15.91.23,1.43.23,1.58l-.23.75c.25,2.62.43,5.23.53,7.85-.1.6-.15,1.43-.15,2.49v.98c0,.2.05.4.15.6-.65,6.19-1.61,9.81-2.87,10.87-1.21,2.41-3.5,4.3-6.87,5.66-1.66.6-4.38.91-8.15.91-3.42,0-6.72-1.56-9.89-4.68-1.61-3.67-2.41-6.77-2.41-9.28,0-.91-.1-1.58-.3-2.04.2-.6.3-1.28.3-2.04l-.6-10.87.15-.3c0-.1-.05-.15-.15-.15,0-.2.05-.3.15-.3,0-.5-.05-1.13-.15-1.89.1-6.89.2-11.39.3-13.51l-.3-2.04c.3,0,.55-.58.75-1.74-.1-.2-.15-.35-.15-.45.15,0,.33-.33.53-.98l-.23-.3c1.21-3.77,2.59-6.39,4.15-7.85,1.91-1.66,4.45-2.69,7.62-3.09.4,0,.88-.05,1.43-.15,1.56.05,2.34.15,2.34.3ZM336.88,27.5h.15v-.75h-.15v.75Z"/>
    <path class="cls-7" d="M356.95,10.82c0,.1.05.15.15.15.05-.2.15-.3.3-.3l.3.15c.1,0,.15-.05.15-.15.8.2,1.53.3,2.19.3,1.21,0,3.14-.1,5.81-.3,2.52.2,4.1.3,4.75.3.2.4.35.6.45.6,0,.25-.05.38-.15.38.1,1.41.15,2.44.15,3.09v3.77c0,2.41-.2,3.62-.6,3.62l-.53-.3h-.45c-.35,0-.6.05-.75.15-1.81-.15-2.72-.25-2.72-.3l-.75.15h-1.74c-.5,0-1.03-.05-1.58-.15l-3.77.6.23,1.58c0,.1-.08.25-.23.45l.23.3c-.35,1.46-.53,3.5-.53,6.11v.68c0,.1-.05.15-.15.15,0,.1.05.15.15.15-.05.8-.15,1.21-.3,1.21.1.2.15.43.15.68,1.26-.1,2.16-.15,2.72-.15h5.43l1.13-.15c.25.6.4.91.45.91l-.15,1.58v1.06c0,1.06-.05,2.64-.15,4.75h-.15l.15.3v.15c0,.1-.05.15-.15.15.15.91.3,1.48.45,1.74v.3c-.4.65-.65.98-.75.98h-.15c-.2,0-.43-.23-.68-.68-.65.2-3.47.53-8.45.98,0,.45-.05.75-.15.91,0,.1.05.15.15.15l-.15,1.58v10.41l.15,1.06c-.1,0-.15.05-.15.15.1,0,.15.05.15.15.1,0,.15-.05.15-.15l.83.15.75-.15.3.15.3-.15.3.15c.2-.1.38-.15.53-.15.2,0,.3.05.3.15l1.06-.15h1.43c.8,0,1.53.05,2.19.15.55-.1,1.08-.15,1.58-.15,2.11.1,3.17.25,3.17.45l-.15,1.58c0,.35.1,2.39.3,6.11l-.15.3.15.38-.15.91c0,.1.05.25.15.45-.1.86-.28,1.28-.53,1.28h-.15c-.25-.05-.5-.43-.75-1.13-.35.15-.55.23-.6.23-1.91,0-6.79.2-14.64.6l-.3-.15c-.2.1-.4.15-.6.15h-.45c-.15,0-.23-.05-.23-.15l-.3.15h-5.66c-.4-.2-.6-.58-.6-1.13v-.91c0-1.11-.05-2.26-.15-3.47.1-.55.15-1.13.15-1.74,0-.1-.05-.15-.15-.15l.15-.75v-3.92c0-.6.05-1.46.15-2.57-.1-.2-.15-.35-.15-.45l.15-.91c-.1-1.96-.15-3.7-.15-5.21v-.45c0-.45.05-.88.15-1.28-.1-.4-.15-.75-.15-1.06,0-1.21.1-2.26.3-3.17-.1-.2-.15-.4-.15-.6,0-.45.05-.88.15-1.28,0-.2-.05-.3-.15-.3.4-8.3.6-13.81.6-16.53v-3.24c0-.1.08-.15.23-.15l-.23-.3v-.38c0-.1.08-.15.23-.15l-.23-.3c0-.1.08-.15.23-.15l-.23-.3c0-.8-.05-3.85-.15-9.13.1-.2.15-.35.15-.45h.98c.3,0,.45-.05.45-.15l.83.15h.3c.65,0,1.38-.1,2.19-.3,3.22.2,5.16.3,5.81.3Z"/>
    <path class="cls-7" d="M409.77,10.67c.25,0,.45-.05.6-.15,2.06,0,4.33.78,6.79,2.34,1.81,1.21,3.22,3.32,4.23,6.34,1.06,3.32,1.58,5.56,1.58,6.72,0,.1-.05.15-.15.15l.15.83v.91c0,.75-.38,1.13-1.13,1.13-1.36,0-3.65.15-6.87.45-.7-.1-1.41-.15-2.11-.15h-1.51c-.2,0-.3-.1-.3-.3,0-.25.1-.38.3-.38-.25-.3-.53-1.76-.83-4.38-.65-1.11-1.38-1.94-2.19-2.49h-.6c-2.11.7-3.17,1.81-3.17,3.32-.2,2.72-.3,4.38-.3,4.98l.15,1.13c-.1.65-.15,1.38-.15,2.19,0,.55.05,1.43.15,2.64l-.15.3.15,1.13c0,1.66-.05,3.12-.15,4.38.1,2.01.15,4.48.15,7.4v.15l.15.91-.15.38c.1,1.06.15,1.89.15,2.49v1.43c.45,1.76.68,2.89.68,3.4l-.23.38c.65,1.86,1.51,2.79,2.57,2.79.1,0,.15-.05.15-.15l.75.15c1.71,0,2.77-1.51,3.17-4.53l-.15-.3c.15-.35.3-.98.45-1.89l-.15-.38.15-.3c-.1-.15-.15-.35-.15-.6l.15-.3,1.89.15h.6c.6,0,1.46-.05,2.57-.15l.3.15c.55-.2,1.63-.3,3.24-.3h.53l1.51.15c0-.3.13-.45.38-.45.15,0,.3.15.45.45l-.15,1.36c.2.35.3.63.3.83-.05,1.06-.15,1.58-.3,1.58,0,.1.05.15.15.15l-.15.75.15.98c-.3,2.01-1.66,5.13-4.07,9.36-2.92,3.37-6.74,5.06-11.47,5.06-5.13-.5-7.7-1.08-7.7-1.74-2.47-1.11-4.25-2.72-5.36-4.83-1.56-3.12-2.34-5.48-2.34-7.09l.15-.75c0-.1-.05-.15-.15-.15,0-.25.05-.38.15-.38-.1-1.21-.15-2.09-.15-2.64v-5.06l.15-.91c-.1-.2-.15-.4-.15-.6,0-.1.05-.15.15-.15l-.15-.83v-.6c0-.1.05-.15.15-.15,0-.1-.05-.15-.15-.15-.1-2.67-.15-4.6-.15-5.81v-3.47c.2-9.86.45-14.79.75-14.79,1.31-4.58,2.74-7.4,4.3-8.45,3.22-2.41,6.56-3.62,10.04-3.62,0-.1.05-.15.15-.15.86.1,1.58.15,2.19.15Z"/>
    <path class="cls-7" d="M440.86,12.63c-.3,5.28-.45,9.68-.45,13.21.1,4.48.15,6.99.15,7.55.1.2.15.35.15.45s-.05.15-.15.15c.3,2.31.45,4.4.45,6.26l-.15.6c0,.1.05.15.15.15l-.15.83c-.35,8.75-.63,13.83-.83,15.24,0,.1.08.15.23.15l-.23,1.06v.98c0,.2.63.4,1.89.6h3.17c.55,0,3.27.15,8.15.45.2.45.35,1.08.45,1.89l-.15.83v2.64c0,.1-.05.15-.15.15l.15.3v3.47l.53.6v.38c0,.15-.38.4-1.13.75l-1.13-.15c-1.31.2-2.09.3-2.34.3-2.57-.3-4.45-.45-5.66-.45h-.45c-.1,0-.15-.05-.15-.15l-.3.15h-.75c-1.06,0-2.64.05-4.75.15v-.15c-.2.1-.35.15-.45.15l-9.28.15c0-.2-.1-.3-.3-.3.5-2.16.75-4.05.75-5.66-.1-.2-.15-.35-.15-.45h.15c0-.1-.05-.15-.15-.15l.15-1.13v-1.58c0-.35-.05-.6-.15-.75l.15-.98v-1.51c0-.15.05-.23.15-.23-.1-.2-.15-.35-.15-.45,0-3.62.28-9.33.83-17.13,0-1.11-.05-2.57-.15-4.38.1-3.57.2-6.09.3-7.55-.1-.15-.15-.4-.15-.75h.15c0-.1-.05-.15-.15-.15l.15-1.13v-2.64c0-.75.05-1.33.15-1.74-.1-.7-.15-1.38-.15-2.04v-5.36c0-.2-.05-.4-.15-.6l.15-.3c0-.7-.2-1.28-.6-1.74v-.15c0-.25.78-.4,2.34-.45.1,0,.15.05.15.15l.75-.15c2.11,0,3.17.1,3.17.3l.75-.15h3.02l1.06.15c.1-.55.28-.83.53-.83.05,0,.25.38.6,1.13ZM428.79,70.06h.45v-.15h-.45v.15ZM430.37,13.24l1.81.53c0-.3-.45-.53-1.36-.68h-.45v.15ZM434.07,13.08l.23.3.3-.15c.4.2,1.03.38,1.89.53l3.09-.38c0-.2-.1-.3-.3-.3h-2.49c-.1,0-.15-.05-.15-.15l-.3.15h-2.26Z"/>
    <path class="cls-7" d="M468.18,12.18h.6l1.43-.6.6.45c.1,2.26.15,3.92.15,4.98v2.57c-.2,3.72-.3,5.81-.3,6.26v1.28l-.15.91c.1.15.15.4.15.75h-.15c0,.15.05.23.15.23l-.15.75v2.19c0,1.76-.1,4.63-.3,8.6h-.15l.15.38v.15c0,.3-.05.45-.15.45l.15.75v4.6c0,.96.05,2.31.15,4.07-.1.2-.15.35-.15.45l.45.91v1.58c.55,3.77.93,5.86,1.13,6.26.7.35,1.28.53,1.74.53h1.36c1.16-.6,1.74-1.81,1.74-3.62.1,0,.23-.83.38-2.49-.25,0-.38-.13-.38-.38.65-3.02.98-5.73.98-8.15h.15l-.15-.3v-.15c0-.8.05-1.53.15-2.19-.4-2.87-.6-4.33-.6-4.38l.15-.83v-3.09l-.15-1.58h.15l-.15-.3v-5.21l-.15-.91c.1-.96.2-1.43.3-1.43,0-.1-.05-.15-.15-.15.2-.86.35-3.12.45-6.79h.15c0-.1-.05-.15-.15-.15l.15-.75v-2.04c0-.1.05-.15.15-.15l-.15-.3v-1.43h-.15l-1.13.15v-.3c0-.1.58-.68,1.74-1.74h.83c.1,0,.15.05.15.15l2.79-.45v.15c.35-.2.68-.3.98-.3h1.21c.75,0,1.13.1,1.13.3l1.58-.15h.6l1.06.15c.05-.2.18-.3.38-.3h.3c.2,0,.3.15.3.45.2,2.77.3,4.43.3,4.98v1.28c0,.6-.05.98-.15,1.13.1.55.15,1.01.15,1.36v1.43c0,1.71-.05,2.97-.15,3.77.2,2.72.3,6.84.3,12.38,0,.75-.05,1.91-.15,3.47.1.15.15.48.15.98,0,.1-.05.15-.15.15,0,.1.05.25.15.45-.1,1.36-.15,2.47-.15,3.32v1.36c0,.25-.05.48-.15.68.1.15.15.35.15.6v.91c-.3,6.39-.78,10.01-1.43,10.87,0,1.16-1.51,3.92-4.53,8.3-3.07,2.41-6.84,3.62-11.32,3.62-.05-.25-1.61-.73-4.68-1.43-1.71-.6-3.3-1.63-4.75-3.09-.75-.55-1.74-1.91-2.94-4.07-.4-1.86-.73-3.02-.98-3.47,0-.1.08-.15.23-.15l-.68-3.62h.15l-.15-.3v-.68c0-1.36.05-3.12.15-5.28l-.15-.3c.1-.2.15-.43.15-.68v-.6c0-.3-.05-.45-.15-.45l.15-.83v-1.58c0-.2.05-.4.15-.6,0-.1-.05-.15-.15-.15l.15-.6c-.1-.7-.15-1.28-.15-1.74h.15l-.15-.3v-2.04c0-.1.05-.15.15-.15,0-.1-.05-.15-.15-.15l.15-.83v-1.43c0-.1.05-.15.15-.15,0-.1-.05-.15-.15-.15l.15-.75v-.98c0-.55-.05-1.28-.15-2.19l.15-.3-.15-.3.15-.3c0-.1-.05-.15-.15-.15.25-1.21.38-3.24.38-6.11v-.38c0-.3-.08-.45-.23-.45l.23-.75v-5.66c0-.25-.08-.45-.23-.6l.23-.38-.23-.3.23-.3c-.15-.2-.23-.4-.23-.6h.23l-.23-.3c0-.1.08-.15.23-.15,0-.15-.08-.33-.23-.53.15-.86.23-1.58.23-2.19v-.45c0-.1.05-.15.15-.15,0-.45-.43-.98-1.28-1.58,0-.5,1.21-.88,3.62-1.13,1.06,0,3.14.33,6.26.98ZM460.03,12.33h.45v-.15h-.45v.15ZM460.63,12.48c1.26.1,2.16.15,2.72.15h.45c.2,0,.4.05.6.15.75-.15,1.13-.3,1.13-.45-1.16-.2-2.36-.3-3.62-.3h-1.13c0,.1-.05.25-.15.45ZM477.91,52.55h.3v-1.13c-.2.05-.3.15-.3.3v.83ZM478.06,51.27h.15v-.45h-.15v.45Z"/>
    <path class="cls-7" d="M524.09,15.05c0,.2.5.83,1.51,1.89,1.46,1.86,2.19,4.75,2.19,8.68v1.21c0,2.87-.68,5.91-2.04,9.13-.1.96-.88,2.06-2.34,3.32,1.86,2.01,3.22,4.3,4.07,6.87.75,3.52,1.13,6.14,1.13,7.85v.3c0,.15-.05.23-.15.23,0,.1.05.15.15.15,0,2.92-.73,6.26-2.19,10.04-.2,0-.98,1.08-2.34,3.24-3.62,2.11-8.25,3.17-13.88,3.17h-2.04c-.3,0-.45-.05-.45-.15l-.75.15h-8.3c-.75,0-1.13-1.06-1.13-3.17.2,0,.3-.05.3-.15,0-2.52.1-5.03.3-7.55,0-.1-.05-.15-.15-.15l.15-.75v-1.43c0-.2-.05-.4-.15-.6l.15-.3c-.1-1.96-.15-3.6-.15-4.9v-.15c0-.8.05-1.53.15-2.19-.1-.55-.2-2.01-.3-4.38l.3-4.23c-.2-2.72-.3-4.55-.3-5.51.2-2.57.3-4.6.3-6.11v-9.89l-.15-.98c.1-.15.15-.35.15-.6,0-.1-.05-.15-.15-.15l.15-.6c-.1-2.67-.15-4.45-.15-5.36.45-.4,2.77-.6,6.94-.6h2.94c.8,0,1.53-.08,2.19-.23,7.45,0,12.12,1.31,14.04,3.92ZM498.82,35.5h.15v-.45h-.15v.45ZM509.91,45.83c0,.1-.05.15-.15.15l.15.3v2.72c0,.1-.05.15-.15.15l.15.3v4.23c-.1,2.36-.15,4.25-.15,5.66.5,0,1.66.05,3.47.15,1.76-.8,2.64-2.47,2.64-4.98.1-1.56.15-2.87.15-3.92-.2-3.37-1.18-5.06-2.94-5.06h-3.32l.15.3ZM509.91,23.42v1.36l.15.98-.15.3c.2,2.52.3,5.08.3,7.7.05.2.18.3.38.3h.3c2.82,0,4.23-1.36,4.23-4.07,0-4.73-.43-7.09-1.28-7.09,0-.1-1.26-.2-3.77-.3l-.15.83Z"/>
  </g>
</svg>