<?xml version="1.0" encoding="UTF-8"?>
<svg id="Layer_1" data-name="Layer 1" xmlns="http://www.w3.org/2000/svg" viewBox="0 0 863.86 706.23">
  <defs>
    <style>
      .cls-1 {
        fill: #231f20;
      }
    </style>
  </defs>
  <path class="cls-1" d="M863.86,261.9c0,144.62-117.26,261.88-261.9,261.88v.17h-128.99c-16.77,0-30.38-13.59-30.38-30.38v-100.11c0-16.77,13.61-30.38,30.38-30.38h128.99v-.15c55.79,0,101.03-45.24,101.03-101.03s-45.24-101.03-101.03-101.03h-128.99c-16.77,0-30.38-13.61-30.38-30.38V30.38c0-16.77,13.61-30.38,30.38-30.38h128.99c144.64,0,261.9,117.26,261.9,261.9Z"/>
  <rect class="cls-1" x="442.6" y="182.29" width="159.37" height="159.37" rx="26.81" ry="26.81"/>
  <path class="cls-1" d="M0,444.33C0,299.71,117.26,182.45,261.9,182.45v-.17h128.99c16.77,0,30.38,13.59,30.38,30.38v100.11c0,16.77-13.61,30.38-30.38,30.38h-128.99v.15c-55.79,0-101.03,45.24-101.03,101.03s45.24,101.03,101.03,101.03h128.99c16.77,0,30.38,13.61,30.38,30.38v100.11c0,16.77-13.61,30.38-30.38,30.38h-128.99C117.26,706.23,0,588.97,0,444.33Z"/>
  <rect class="cls-1" x="261.91" y="364.58" width="159.37" height="159.37" rx="26.81" ry="26.81" transform="translate(683.19 888.52) rotate(180)"/>
</svg>