<?xml version="1.0" encoding="UTF-8"?>
<svg id="Layer_1" data-name="Layer 1" xmlns="http://www.w3.org/2000/svg" viewBox="0 0 762.48 115.45">
  <defs>
    <style>
      .cls-1 {
        fill: #231f20;
      }
    </style>
  </defs>
  <g>
    <path class="cls-1" d="M231.89,35.21c-1.25-2.01-2.81-3.77-4.68-5.29-1.88-1.51-4-2.7-6.36-3.55-2.37-.85-4.84-1.27-7.43-1.27-4.73,0-8.75.92-12.05,2.75-3.3,1.83-5.98,4.28-8.03,7.36-2.05,3.08-3.55,6.58-4.49,10.51-.94,3.93-1.41,7.99-1.41,12.18s.47,7.92,1.41,11.71c.94,3.79,2.43,7.21,4.49,10.24,2.05,3.03,4.73,5.47,8.03,7.3,3.3,1.83,7.32,2.75,12.05,2.75,6.43,0,11.45-1.96,15.06-5.89,2.77-3,4.71-6.74,5.83-11.21.63-2.51,2.8-4.32,5.38-4.32h9.35c3.54,0,6.15,3.29,5.4,6.75s-1.77,6.52-3.13,9.45c-2.23,4.82-5.18,8.93-8.84,12.32-3.66,3.39-7.94,5.98-12.85,7.76-4.91,1.78-10.31,2.68-16.2,2.68-7.32,0-13.9-1.27-19.75-3.81-5.85-2.54-10.78-6.05-14.79-10.51-4.02-4.46-7.09-9.7-9.24-15.73-2.14-6.02-3.21-12.52-3.21-19.48s1.07-13.77,3.21-19.88c2.14-6.11,5.22-11.44,9.24-16,4.02-4.55,8.95-8.12,14.79-10.71,5.84-2.59,12.43-3.88,19.75-3.88,5.26,0,10.24.76,14.93,2.27,4.69,1.52,8.88,3.73,12.58,6.63,3.7,2.9,6.76,6.49,9.17,10.78,1.34,2.39,2.41,4.97,3.2,7.74,1,3.5-1.7,6.99-5.34,6.99h-9.29c-2.28,0-4.45-1.32-5.23-3.46-.4-1.1-.91-2.16-1.54-3.16Z"/>
    <path class="cls-1" d="M285.98,15.23v84.54c0,3.05-2.47,5.52-5.52,5.52h-7.97c-3.05,0-5.52-2.47-5.52-5.52V15.23c0-3.05,2.47-5.52,5.52-5.52h7.97c3.05,0,5.52,2.47,5.52,5.52Z"/>
    <path class="cls-1" d="M352.01,105.29c-3.05,0-5.52-2.47-5.52-5.52v-4.12h-.4c-2.41,4.02-5.53,6.92-9.37,8.7-3.84,1.78-7.77,2.68-11.78,2.68-5.09,0-9.26-.67-12.52-2.01-3.26-1.34-5.82-3.24-7.7-5.69s-3.19-5.44-3.95-8.97c-.76-3.53-1.14-7.43-1.14-11.71v-37.05c0-3.05,2.47-5.52,5.52-5.52h7.97c3.05,0,5.52,2.47,5.52,5.52v33.57c0,5.71.89,9.97,2.68,12.78,1.78,2.81,4.95,4.22,9.5,4.22,5.17,0,8.92-1.54,11.25-4.62,2.32-3.08,3.48-8.14,3.48-15.19v-30.76c0-3.05,2.47-5.52,5.52-5.52h7.97c3.05,0,5.52,2.47,5.52,5.52v58.17c0,3.05-2.47,5.52-5.52,5.52h-7.03Z"/>
    <path class="cls-1" d="M391.17,9.71c3.05,0,5.52,2.47,5.52,5.52v29.29h.27c2.32-3.57,5.47-6.18,9.44-7.83,3.97-1.65,8.1-2.48,12.38-2.48,3.48,0,6.92.72,10.31,2.14,3.39,1.43,6.45,3.61,9.17,6.56,2.72,2.95,4.93,6.72,6.63,11.31,1.69,4.6,2.54,10.06,2.54,16.4s-.85,11.8-2.54,16.4c-1.7,4.6-3.91,8.37-6.63,11.31-2.72,2.94-5.78,5.13-9.17,6.56-3.39,1.42-6.83,2.14-10.31,2.14-5.09,0-9.64-.8-13.65-2.41-4.02-1.61-7.05-4.33-9.1-8.17h-.27v3.32c0,3.05-2.47,5.52-5.52,5.52h-7.03c-3.05,0-5.52-2.47-5.52-5.52V15.23c0-3.05,2.47-5.52,5.52-5.52h7.97ZM427.48,62.32c-.63-2.68-1.61-5.04-2.95-7.09-1.34-2.05-3.01-3.68-5.02-4.89-2.01-1.2-4.44-1.81-7.3-1.81s-5.18.6-7.23,1.81c-2.05,1.2-3.75,2.84-5.09,4.89-1.34,2.05-2.32,4.42-2.95,7.09-.63,2.68-.94,5.49-.94,8.44s.31,5.62.94,8.3c.62,2.68,1.61,5.04,2.95,7.09,1.34,2.05,3.03,3.68,5.09,4.89,2.05,1.21,4.46,1.81,7.23,1.81s5.29-.6,7.3-1.81c2.01-1.2,3.68-2.83,5.02-4.89,1.34-2.05,2.32-4.42,2.95-7.09.62-2.68.94-5.44.94-8.3s-.31-5.76-.94-8.44Z"/>
    <path class="cls-1" d="M503.25,9.71c5.98,0,11.06.87,15.26,2.61,4.19,1.74,7.61,4.04,10.24,6.89,2.63,2.86,4.55,6.11,5.76,9.77,1.21,3.66,1.81,7.45,1.81,11.38s-.6,7.61-1.81,11.31-3.13,6.98-5.76,9.84c-2.63,2.86-6.05,5.16-10.24,6.9-4.2,1.74-9.28,2.61-15.26,2.61h-16.57c-3.05,0-5.52,2.47-5.52,5.52v23.23c0,3.05-2.47,5.52-5.52,5.52h-9.98c-3.05,0-5.52-2.47-5.52-5.52V15.23c0-3.05,2.47-5.52,5.52-5.52h37.59ZM497.49,54.69c2.41,0,4.73-.18,6.96-.54,2.23-.36,4.19-1.05,5.89-2.08,1.69-1.02,3.06-2.48,4.08-4.35,1.03-1.87,1.54-4.33,1.54-7.36s-.51-5.49-1.54-7.36c-1.03-1.87-2.39-3.32-4.08-4.35-1.7-1.02-3.66-1.72-5.89-2.07-2.23-.36-4.55-.54-6.96-.54h-10.81c-3.05,0-5.52,2.47-5.52,5.52v17.61c0,3.05,2.47,5.52,5.52,5.52h10.81Z"/>
    <path class="cls-1" d="M551.96,57.37c-3.81,0-6.55-3.8-5.22-7.36.51-1.36,1.14-2.61,1.89-3.75,1.96-2.94,4.46-5.31,7.5-7.09,3.03-1.78,6.45-3.06,10.24-3.82,3.79-.76,7.61-1.14,11.45-1.14,3.48,0,7.01.25,10.58.74,3.57.49,6.83,1.45,9.77,2.88,2.94,1.43,5.35,3.42,7.23,5.96,1.87,2.54,2.81,5.91,2.81,10.11v36.01c0,3.12.18,6.11.54,8.97,0,.03,0,.06.01.09.43,3.35-2.08,6.34-5.46,6.34h-11.96c-.36-1.07-.65-2.16-.87-3.28-.22-1.12-.38-2.25-.47-3.42-3.04,3.13-6.61,5.31-10.71,6.56-4.11,1.25-8.3,1.87-12.58,1.87-3.3,0-6.38-.4-9.24-1.2-2.86-.8-5.35-2.05-7.5-3.75-2.14-1.69-3.81-3.83-5.02-6.42-1.21-2.59-1.81-5.67-1.81-9.24,0-3.93.69-7.16,2.07-9.71s3.17-4.57,5.36-6.09c2.19-1.52,4.68-2.66,7.5-3.42,2.81-.76,5.64-1.36,8.5-1.81,2.86-.45,5.67-.8,8.43-1.07,2.77-.27,5.22-.67,7.36-1.2,2.14-.53,3.84-1.32,5.09-2.34,1.25-1.02,1.83-2.52,1.74-4.49,0-2.05-.33-3.68-1-4.89-.67-1.2-1.56-2.14-2.68-2.81-1.12-.67-2.41-1.11-3.88-1.34s-3.06-.34-4.75-.34c-3.75,0-6.69.8-8.84,2.41-1.33,1-2.32,2.41-2.96,4.24-.79,2.24-2.85,3.79-5.22,3.79h-7.9ZM589.19,71.42c-.8.71-1.81,1.27-3.01,1.67-1.2.4-2.5.74-3.88,1.01-1.38.27-2.84.49-4.35.67-1.52.18-3.04.4-4.55.67-1.43.27-2.83.63-4.22,1.07-1.38.45-2.59,1.05-3.61,1.81-1.03.76-1.85,1.72-2.48,2.88-.63,1.16-.94,2.63-.94,4.42s.31,3.12.94,4.28c.62,1.16,1.47,2.07,2.54,2.74,1.07.67,2.32,1.14,3.75,1.41,1.43.27,2.9.4,4.42.4,3.75,0,6.65-.62,8.7-1.87,2.05-1.25,3.57-2.75,4.55-4.49s1.58-3.5,1.81-5.29c.22-1.78.33-3.21.33-4.28v-7.09Z"/>
    <path class="cls-1" d="M654.65,48.53c-3.04,0-5.58.69-7.63,2.07-2.05,1.39-3.73,3.17-5.02,5.35-1.3,2.19-2.21,4.6-2.74,7.23-.54,2.63-.8,5.24-.8,7.83s.27,5.04.8,7.63c.54,2.59,1.41,4.93,2.61,7.03,1.21,2.1,2.83,3.82,4.89,5.16,2.05,1.34,4.55,2.01,7.5,2.01,4.55,0,8.05-1.27,10.51-3.82,1.64-1.7,2.87-3.78,3.69-6.25.78-2.33,2.82-3.99,5.27-3.99h7.13c3.69,0,6.42,3.59,5.3,7.11-1.83,5.78-4.88,10.42-9.15,13.91-5.89,4.82-13.43,7.23-22.62,7.23-5.18,0-9.93-.87-14.26-2.61-4.33-1.74-8.01-4.17-11.05-7.3s-5.4-6.85-7.09-11.18c-1.7-4.33-2.54-9.08-2.54-14.26s.78-10.33,2.34-14.93c1.56-4.59,3.86-8.57,6.89-11.91,3.03-3.35,6.74-5.96,11.11-7.83,4.37-1.87,9.37-2.81,14.99-2.81,4.1,0,8.05.54,11.85,1.61,3.79,1.07,7.18,2.7,10.17,4.89,2.99,2.19,5.42,4.91,7.3,8.17.78,1.35,1.42,2.81,1.92,4.36,1.15,3.56-1.53,7.22-5.27,7.22h-8.04c-2.26,0-4.14-1.52-4.91-3.64-2-5.52-6.38-8.27-13.14-8.27Z"/>
    <path class="cls-1" d="M717.84,15.23v32.06c0,4.97,6.05,7.41,9.5,3.83l12.84-13.34c1.04-1.08,2.48-1.69,3.98-1.69h6.57c4.95,0,7.4,6.02,3.85,9.47l-13.1,12.77c-1.9,1.85-2.21,4.79-.75,7.01l20.83,31.39c2.43,3.67-.2,8.57-4.6,8.57h-9.65c-1.92,0-3.7-1-4.7-2.63l-13.8-22.45c-1.85-3-6-3.53-8.53-1.08l-.73.71c-1.08,1.04-1.69,2.48-1.69,3.97v15.96c0,3.05-2.47,5.52-5.52,5.52h-7.97c-3.05,0-5.52-2.47-5.52-5.52V15.23c0-3.05,2.47-5.52,5.52-5.52h7.97c3.05,0,5.52,2.47,5.52,5.52Z"/>
  </g>
  <g>
    <path class="cls-1" d="M140.67,42.65c0,23.55-19.09,42.64-42.65,42.64v.03h-21c-2.73,0-4.95-2.21-4.95-4.95v-16.3c0-2.73,2.22-4.95,4.95-4.95h21v-.02c9.08,0,16.45-7.37,16.45-16.45s-7.37-16.45-16.45-16.45h-21c-2.73,0-4.95-2.22-4.95-4.95V4.95c0-2.73,2.22-4.95,4.95-4.95h21c23.55,0,42.65,19.09,42.65,42.65Z"/>
    <rect class="cls-1" x="72.07" y="29.68" width="25.95" height="25.95" rx="4.37" ry="4.37"/>
    <path class="cls-1" d="M0,72.35C0,48.8,19.09,29.71,42.65,29.71v-.03h21c2.73,0,4.95,2.21,4.95,4.95v16.3c0,2.73-2.22,4.95-4.95,4.95h-21v.02c-9.08,0-16.45,7.37-16.45,16.45s7.37,16.45,16.45,16.45h21c2.73,0,4.95,2.22,4.95,4.95v16.3c0,2.73-2.22,4.95-4.95,4.95h-21C19.09,115,0,95.91,0,72.35Z"/>
    <rect class="cls-1" x="42.65" y="59.37" width="25.95" height="25.95" rx="4.37" ry="4.37" transform="translate(111.25 144.68) rotate(180)"/>
  </g>
</svg>